# This file uses centimeters as units for non-parametric coordinates.

mtllib Röhre_small.mtl
g default
v 0.800000 0.000000 -2.552548
v 0.760845 0.247214 -2.552548
v 0.647214 0.470228 -2.552548
v 0.470228 0.647214 -2.552548
v 0.247214 0.760845 -2.552548
v 0.000000 0.800000 -2.552548
v -0.247214 0.760845 -2.552548
v -0.470228 0.647214 -2.552548
v -0.647214 0.470228 -2.552548
v -0.760845 0.247214 -2.552548
v -0.800000 0.000000 -2.552548
v -0.760845 -0.247214 -2.552548
v -0.647214 -0.470228 -2.552548
v -0.470228 -0.647214 -2.552548
v -0.247214 -0.760845 -2.552548
v 0.000000 -0.800000 -2.552548
v 0.247214 -0.760846 -2.552548
v 0.470228 -0.647214 -2.552548
v 0.647214 -0.470228 -2.552548
v 0.760846 -0.247214 -2.552548
v 0.800000 0.000000 2.552548
v 0.760845 0.247214 2.552548
v 0.647214 0.470228 2.552548
v 0.470228 0.647214 2.552548
v 0.247214 0.760845 2.552548
v 0.000000 0.800000 2.552548
v -0.247214 0.760845 2.552548
v -0.470228 0.647214 2.552548
v -0.647214 0.470228 2.552548
v -0.760845 0.247214 2.552548
v -0.800000 0.000000 2.552548
v -0.760845 -0.247214 2.552548
v -0.647214 -0.470228 2.552548
v -0.470228 -0.647214 2.552548
v -0.247214 -0.760845 2.552548
v 0.000000 -0.800000 2.552548
v 0.247214 -0.760846 2.552548
v 0.470228 -0.647214 2.552548
v 0.647214 -0.470228 2.552548
v 0.760846 -0.247214 2.552548
v 1.000000 0.000000 2.552548
v 0.951057 0.309017 2.552548
v 0.809017 0.587785 2.552548
v 0.587785 0.809017 2.552548
v 0.309017 0.951057 2.552548
v -0.000000 1.000000 2.552548
v -0.309017 0.951057 2.552548
v -0.587785 0.809017 2.552548
v -0.809017 0.587785 2.552548
v -0.951057 0.309017 2.552548
v -1.000000 0.000000 2.552548
v -0.951057 -0.309017 2.552548
v -0.809017 -0.587785 2.552548
v -0.587785 -0.809017 2.552548
v -0.309017 -0.951057 2.552548
v 0.000000 -1.000000 2.552548
v 0.309017 -0.951057 2.552548
v 0.587786 -0.809017 2.552548
v 0.809018 -0.587786 2.552548
v 0.951057 -0.309017 2.552548
v 1.000000 0.000000 -2.552548
v 0.951057 0.309017 -2.552548
v 0.809017 0.587785 -2.552548
v 0.587785 0.809017 -2.552548
v 0.309017 0.951057 -2.552548
v -0.000000 1.000000 -2.552548
v -0.309017 0.951057 -2.552548
v -0.587785 0.809017 -2.552548
v -0.809017 0.587785 -2.552548
v -0.951057 0.309017 -2.552548
v -1.000000 0.000000 -2.552548
v -0.951057 -0.309017 -2.552548
v -0.809017 -0.587785 -2.552548
v -0.587785 -0.809017 -2.552548
v -0.309017 -0.951057 -2.552548
v 0.000000 -1.000000 -2.552548
v 0.309017 -0.951057 -2.552548
v 0.587786 -0.809017 -2.552548
v 0.809018 -0.587786 -2.552548
v 0.951057 -0.309017 -2.552548
vt 1.407821 0.623607
vt 1.403356 0.500000
vt 0.596708 0.500000
vt 0.592242 0.623607
vt 1.420988 0.735114
vt 0.579075 0.735114
vt 1.442043 0.823607
vt 0.558020 0.823607
vt 1.469299 0.880423
vt 0.530764 0.880423
vt -0.499968 0.900000
vt 0.500032 0.900000
vt -0.469236 0.880423
vt 0.469299 0.880423
vt -0.441980 0.823607
vt 0.442043 0.823607
vt -0.420925 0.735114
vt 0.420988 0.735114
vt -0.407758 0.623607
vt 0.407821 0.623607
vt -0.403292 0.500000
vt 0.403356 0.500000
vt -0.407758 0.376393
vt 0.407821 0.376393
vt -0.420925 0.264886
vt 0.420988 0.264886
vt -0.441980 0.176393
vt 0.442043 0.176393
vt -0.469236 0.119577
vt 0.469299 0.119577
vt -0.499968 0.100000
vt 0.500032 0.100000
vt 0.530764 0.119577
vt 1.442043 0.176393
vt 0.558020 0.176393
vt 1.420988 0.264886
vt 0.579075 0.264886
vt 1.407821 0.376393
vt 0.592242 0.376393
vt 0.618885 0.500000
vt 0.613559 0.654509
vt 0.597730 0.793893
vt 0.572074 0.904509
vt 0.461683 0.975528
vt 0.427989 0.904509
vt 0.402333 0.793893
vt 0.386504 0.654509
vt 0.381179 0.500000
vt 0.386504 0.345492
vt 0.402333 0.206107
vt 0.427989 0.095492
vt 0.538381 0.024472
vt 0.572075 0.095491
vt 0.597731 0.206107
vt 0.613559 0.345492
vt 1.381179 0.500000
vt 1.386504 0.654509
vt 1.402333 0.793893
vt 1.427989 0.904509
vt -0.499968 1.000000
vt -0.461619 0.975528
vt -0.427926 0.904509
vt -0.402270 0.793893
vt -0.386441 0.654509
vt -0.381115 0.500000
vt -0.386441 0.345492
vt -0.402270 0.206107
vt -0.427926 0.095492
vt -0.461619 0.024472
vt -0.499968 0.000000
vt 1.461683 0.024472
vt 1.427989 0.095491
vt 1.402333 0.206107
vt 1.386504 0.345492
vt 1.500032 0.100000
vt 1.530764 0.119577
vt 2.469299 0.119577
vt 0.538381 0.975528
vt 0.500032 1.000000
vt 1.500032 1.000000
vt 1.538381 0.975528
vt 2.461683 0.975528
vt 0.461683 0.024472
vt 0.500032 0.000000
vt 1.461683 0.975528
vt 1.500032 0.900000
vt 1.500032 0.000000
vt 1.469299 0.119577
vn -0.951057 -0.309017 0.000000
vn -1.000000 -0.000001 0.000000
vn -1.000000 -0.000001 0.000000
vn -0.951057 -0.309017 0.000000
vn -0.809017 -0.587785 0.000000
vn -0.809017 -0.587785 0.000000
vn -0.587785 -0.809017 0.000000
vn -0.587785 -0.809017 0.000000
vn -0.309017 -0.951056 0.000000
vn -0.309017 -0.951056 0.000000
vn -0.000000 -1.000000 0.000000
vn -0.000000 -1.000000 0.000000
vn 0.309017 -0.951057 0.000000
vn 0.309017 -0.951057 0.000000
vn 0.587785 -0.809017 0.000000
vn 0.587785 -0.809017 0.000000
vn 0.809017 -0.587785 0.000000
vn 0.809017 -0.587785 0.000000
vn 0.951056 -0.309017 0.000000
vn 0.951056 -0.309017 0.000000
vn 1.000000 -0.000000 0.000000
vn 1.000000 -0.000000 0.000000
vn 0.951057 0.309017 0.000000
vn 0.951057 0.309017 0.000000
vn 0.809017 0.587785 0.000000
vn 0.809017 0.587785 0.000000
vn 0.587785 0.809017 0.000000
vn 0.587785 0.809017 0.000000
vn 0.309017 0.951057 0.000000
vn 0.309017 0.951057 0.000000
vn 0.000000 1.000000 0.000000
vn 0.000000 1.000000 0.000000
vn -0.309017 0.951057 0.000000
vn -0.309017 0.951057 0.000000
vn -0.587785 0.809017 0.000000
vn -0.587785 0.809017 0.000000
vn -0.809017 0.587785 0.000000
vn -0.809017 0.587785 0.000000
vn -0.951057 0.309016 0.000000
vn -0.951057 0.309016 0.000000
vn 0.000000 0.000000 1.000000
vn 0.000000 0.000000 1.000000
vn 0.000000 0.000000 1.000000
vn 0.000000 0.000000 1.000000
vn 0.000000 0.000000 1.000000
vn 0.000000 0.000000 1.000000
vn 0.000000 0.000000 1.000000
vn 0.000000 0.000000 1.000000
vn 0.000000 0.000000 1.000000
vn 0.000000 0.000000 1.000000
vn 0.000000 0.000000 1.000000
vn 0.000000 0.000000 1.000000
vn 0.000000 0.000000 1.000000
vn 0.000000 0.000000 1.000000
vn 0.000000 0.000000 1.000000
vn 0.000000 0.000000 1.000000
vn 0.000000 0.000000 1.000000
vn 0.000000 0.000000 1.000000
vn 0.000000 0.000000 1.000000
vn 0.000000 0.000000 1.000000
vn 0.000000 0.000000 1.000000
vn 0.000000 0.000000 1.000000
vn 0.000000 0.000000 1.000000
vn 0.000000 0.000000 1.000000
vn 0.000000 0.000000 1.000000
vn 0.000000 0.000000 1.000000
vn 0.000000 0.000000 1.000000
vn 0.000000 0.000000 1.000000
vn 0.000000 0.000000 1.000000
vn 0.000000 0.000000 1.000000
vn 0.000000 0.000000 1.000000
vn 0.000000 0.000000 1.000000
vn 0.000000 0.000000 1.000000
vn 0.000000 0.000000 1.000000
vn 0.000000 0.000000 1.000000
vn 0.000000 0.000000 1.000000
vn 0.000000 0.000000 1.000000
vn 0.000000 0.000000 1.000000
vn 0.000000 0.000000 1.000000
vn 0.000000 0.000000 1.000000
vn 0.951057 0.309017 0.000000
vn 1.000000 0.000001 0.000000
vn 1.000000 0.000001 0.000000
vn 0.951057 0.309017 0.000000
vn 0.809017 0.587785 0.000000
vn 0.809017 0.587785 0.000000
vn 0.587785 0.809017 0.000000
vn 0.587785 0.809017 0.000000
vn 0.309017 0.951057 0.000000
vn 0.309017 0.951057 0.000000
vn 0.000000 1.000000 0.000000
vn 0.000000 1.000000 0.000000
vn -0.309017 0.951057 0.000000
vn -0.309017 0.951057 0.000000
vn -0.587785 0.809017 0.000000
vn -0.587785 0.809017 0.000000
vn -0.809017 0.587785 0.000000
vn -0.809017 0.587785 0.000000
vn -0.951057 0.309017 0.000000
vn -0.951057 0.309017 0.000000
vn -1.000000 0.000000 0.000000
vn -1.000000 0.000000 0.000000
vn -0.951057 -0.309017 0.000000
vn -0.951057 -0.309017 0.000000
vn -0.809017 -0.587785 0.000000
vn -0.809017 -0.587785 0.000000
vn -0.587785 -0.809017 0.000000
vn -0.587785 -0.809017 0.000000
vn -0.309017 -0.951056 0.000000
vn -0.309017 -0.951056 0.000000
vn -0.000000 -1.000000 0.000000
vn -0.000000 -1.000000 0.000000
vn 0.309017 -0.951057 0.000000
vn 0.309017 -0.951057 0.000000
vn 0.587785 -0.809017 0.000000
vn 0.587785 -0.809017 0.000000
vn 0.809017 -0.587785 0.000000
vn 0.809017 -0.587785 0.000000
vn 0.951057 -0.309016 0.000000
vn 0.951057 -0.309016 0.000000
vn 0.000000 -0.000000 -1.000000
vn 0.000000 -0.000000 -1.000000
vn 0.000000 -0.000000 -1.000000
vn 0.000000 -0.000000 -1.000000
vn 0.000000 -0.000000 -1.000000
vn 0.000000 -0.000000 -1.000000
vn 0.000000 -0.000000 -1.000000
vn 0.000000 -0.000000 -1.000000
vn 0.000000 -0.000000 -1.000000
vn 0.000000 -0.000000 -1.000000
vn 0.000000 -0.000000 -1.000000
vn 0.000000 -0.000000 -1.000000
vn 0.000000 -0.000000 -1.000000
vn 0.000000 -0.000000 -1.000000
vn 0.000000 -0.000000 -1.000000
vn 0.000000 -0.000000 -1.000000
vn 0.000000 -0.000000 -1.000000
vn 0.000000 -0.000000 -1.000000
vn 0.000000 -0.000000 -1.000000
vn 0.000000 -0.000000 -1.000000
vn 0.000000 -0.000000 -1.000000
vn 0.000000 -0.000000 -1.000000
vn 0.000000 -0.000000 -1.000000
vn 0.000000 -0.000000 -1.000000
vn 0.000000 -0.000000 -1.000000
vn 0.000000 -0.000000 -1.000000
vn 0.000000 -0.000000 -1.000000
vn 0.000000 -0.000000 -1.000000
vn 0.000000 -0.000000 -1.000000
vn 0.000000 -0.000000 -1.000000
vn 0.000000 0.000000 -1.000000
vn 0.000000 0.000000 -1.000000
vn 0.000000 0.000001 -1.000000
vn 0.000000 0.000001 -1.000000
vn 0.000000 0.000000 -1.000000
vn 0.000000 0.000000 -1.000000
vn 0.000000 -0.000000 -1.000000
vn 0.000000 -0.000000 -1.000000
vn 0.000000 -0.000000 -1.000000
vn 0.000000 -0.000000 -1.000000
s 1
g pPipe3
usemtl initialShadingGroup
f 2/1/1 1/2/2 21/3/3 22/4/4
f 3/5/5 2/1/1 22/4/4 23/6/6
f 4/7/7 3/5/5 23/6/6 24/8/8
f 5/9/9 4/7/7 24/8/8 25/10/10
f 6/86/11 5/9/9 25/10/10 26/12/12
f 7/13/13 6/86/11 26/12/12 27/14/14
f 8/15/15 7/13/13 27/14/14 28/16/16
f 9/17/17 8/15/15 28/16/16 29/18/18
f 10/19/19 9/17/17 29/18/18 30/20/20
f 11/21/21 10/19/19 30/20/20 31/22/22
f 12/23/23 11/21/21 31/22/22 32/24/24
f 13/25/25 12/23/23 32/24/24 33/26/26
f 14/27/27 13/25/25 33/26/26 34/28/28
f 15/29/29 14/27/27 34/28/28 35/30/30
f 16/75/31 15/76/29 35/77/30 36/32/32
f 17/88/33 16/75/31 36/32/32 37/33/34
f 18/34/35 17/88/33 37/33/34 38/35/36
f 19/36/37 18/34/35 38/35/36 39/37/38
f 20/38/39 19/36/37 39/37/38 40/39/40
f 1/2/2 20/38/39 40/39/40 21/3/3
s 2
f 22/4/41 21/3/42 41/40/43 42/41/44
f 23/6/45 22/4/41 42/41/44 43/42/46
f 24/8/47 23/6/45 43/42/46 44/43/48
f 25/10/49 24/8/47 44/43/48 45/78/50
f 26/12/51 25/10/49 45/78/50 46/79/52
f 27/14/53 26/12/51 46/79/52 47/44/54
f 28/16/55 27/14/53 47/44/54 48/45/56
f 29/18/57 28/16/55 48/45/56 49/46/58
f 30/20/59 29/18/57 49/46/58 50/47/60
f 31/22/61 30/20/59 50/47/60 51/48/62
f 32/24/63 31/22/61 51/48/62 52/49/64
f 33/26/65 32/24/63 52/49/64 53/50/66
f 34/28/67 33/26/65 53/50/66 54/51/68
f 35/30/69 34/28/67 54/51/68 55/83/70
f 36/32/71 35/30/69 55/83/70 56/84/72
f 37/33/73 36/32/71 56/84/72 57/52/74
f 38/35/75 37/33/73 57/52/74 58/53/76
f 39/37/77 38/35/75 58/53/76 59/54/78
f 40/39/79 39/37/77 59/54/78 60/55/80
f 21/3/42 40/39/79 60/55/80 41/40/43
s 3
f 42/41/81 41/40/82 61/56/83 62/57/84
f 43/42/85 42/41/81 62/57/84 63/58/86
f 44/43/87 43/42/85 63/58/86 64/59/88
f 45/78/89 44/43/87 64/59/88 65/85/90
f 46/79/91 45/78/89 65/85/90 66/80/92
f 47/82/93 46/79/91 66/80/92 67/81/94
f 48/45/95 47/44/93 67/61/94 68/62/96
f 49/46/97 48/45/95 68/62/96 69/63/98
f 50/47/99 49/46/97 69/63/98 70/64/100
f 51/48/101 50/47/99 70/64/100 71/65/102
f 52/49/103 51/48/101 71/65/102 72/66/104
f 53/50/105 52/49/103 72/66/104 73/67/106
f 54/51/107 53/50/105 73/67/106 74/68/108
f 55/83/109 54/51/107 74/68/108 75/69/110
f 56/84/111 55/83/109 75/69/110 76/87/112
f 57/52/113 56/84/111 76/87/112 77/71/114
f 58/53/115 57/52/113 77/71/114 78/72/116
f 59/54/117 58/53/115 78/72/116 79/73/118
f 60/55/119 59/54/117 79/73/118 80/74/120
f 41/40/82 60/55/119 80/74/120 61/56/83
s 4
f 62/57/121 61/56/122 1/2/123 2/1/124
f 63/58/125 62/57/121 2/1/124 3/5/126
f 64/59/127 63/58/125 3/5/126 4/7/128
f 65/85/129 64/59/127 4/7/128 5/9/130
f 66/80/131 65/85/129 5/9/130 6/86/132
f 67/61/133 66/60/131 6/11/132 7/13/134
f 68/62/135 67/61/133 7/13/134 8/15/136
f 69/63/137 68/62/135 8/15/136 9/17/138
f 70/64/139 69/63/137 9/17/138 10/19/140
f 71/65/141 70/64/139 10/19/140 11/21/142
f 72/66/143 71/65/141 11/21/142 12/23/144
f 73/67/145 72/66/143 12/23/144 13/25/146
f 74/68/147 73/67/145 13/25/146 14/27/148
f 75/69/149 74/68/147 14/27/148 15/29/150
f 76/70/151 75/69/149 15/29/150 16/31/152
f 77/71/153 76/87/151 16/75/152 17/88/154
f 78/72/155 77/71/153 17/88/154 18/34/156
f 79/73/157 78/72/155 18/34/156 19/36/158
f 80/74/159 79/73/157 19/36/158 20/38/160
f 61/56/122 80/74/159 20/38/160 1/2/123
