# Blender 3.3.0
# www.blender.org
mtllib Chainlink_01.mtl
o Chainlink_01
v 0.062588 0.000082 -0.096278
v 0.045788 0.000081 -0.111182
v 0.036905 0.018426 -0.101199
v 0.053733 0.018428 -0.086271
v 0.022624 0.011405 -0.085063
v 0.039416 0.011406 -0.070167
v 0.022633 -0.011281 -0.085071
v 0.039426 -0.011279 -0.070175
v 0.036921 -0.018280 -0.101212
v 0.053748 -0.018278 -0.086284
v -0.058719 0.000035 -0.104929
v -0.073622 0.000023 -0.088129
v -0.063653 0.018377 -0.079248
v -0.048725 0.018389 -0.096076
v -0.047512 0.011369 -0.064966
v -0.032616 0.011381 -0.081758
v -0.047503 -0.011317 -0.064974
v -0.032606 -0.011305 -0.081766
v -0.063638 -0.018329 -0.079260
v -0.048710 -0.018317 -0.096088
v -0.062589 -0.000037 0.096278
v -0.045788 -0.000035 0.111182
v -0.036922 0.018325 0.101211
v -0.053749 0.018324 0.086283
v -0.022634 0.011327 0.085071
v -0.039427 0.011325 0.070174
v -0.022625 -0.011359 0.085063
v -0.039417 -0.011360 0.070167
v -0.036906 -0.018381 0.101198
v -0.053734 -0.018382 0.086271
v 0.058718 0.000011 0.104929
v 0.073621 0.000023 0.088128
v 0.063637 0.018375 0.079260
v 0.048709 0.018363 0.096088
v 0.047502 0.011363 0.064973
v 0.032606 0.011351 0.081766
v 0.047512 -0.011323 0.064966
v 0.032615 -0.011335 0.081758
v 0.063652 -0.018331 0.079248
v 0.048725 -0.018343 0.096075
vn 0.2188 -0.5451 -0.8093
vn -0.3132 -0.5454 -0.7775
vn -0.3946 -0.5645 -0.7250
vn 0.3058 -0.5642 -0.7669
vn -0.9982 -0.0004 0.0597
vn -0.3450 -0.9360 -0.0694
vn -0.3343 -0.9361 0.1095
vn -0.2811 -0.9461 0.1611
vn -0.2984 -0.9460 -0.1270
vn -0.7670 0.5644 -0.3054
vn -0.7251 0.5641 0.3950
vn -0.7775 0.5451 0.3136
vn -0.8093 0.5452 -0.2183
vn 0.8093 -0.5452 0.2183
vn 0.7775 -0.5451 -0.3136
vn 0.7251 -0.5641 -0.3950
vn 0.7670 -0.5643 0.3054
vn -0.8089 -0.5458 -0.2187
vn -0.7771 -0.5459 0.3132
vn -0.7246 -0.5650 0.3946
vn -0.7665 -0.5648 -0.3058
vn 0.9982 0.0004 -0.0597
vn 0.3458 -0.9358 0.0688
vn 0.3351 -0.9357 -0.1101
vn 0.2819 -0.9457 -0.1617
vn 0.2992 -0.9458 0.1263
vn -0.3058 0.5642 0.7669
vn 0.3946 0.5645 0.7250
vn 0.3132 0.5454 0.7775
vn -0.2188 0.5451 0.8093
vn 0.2984 0.9460 0.1270
vn 0.2811 0.9461 -0.1611
vn 0.3343 0.9361 -0.1095
vn 0.3450 0.9360 0.0694
vn -0.2183 -0.5459 0.8089
vn 0.3137 -0.5456 0.7771
vn 0.3951 -0.5646 0.7246
vn -0.3054 -0.5650 0.7665
vn -0.0597 0.0003 -0.9982
vn 0.0695 -0.9358 -0.3457
vn -0.1094 -0.9358 -0.3350
vn -0.1610 -0.9459 -0.2819
vn 0.1271 -0.9457 -0.2991
vn 0.1263 0.9460 -0.2984
vn -0.1618 0.9459 -0.2812
vn -0.1102 0.9360 -0.3344
vn 0.0687 0.9361 -0.3451
vn 0.3054 0.5650 -0.7665
vn -0.3951 0.5647 -0.7246
vn -0.3137 0.5456 -0.7771
vn 0.2183 0.5459 -0.8089
vn -0.1271 0.9457 0.2991
vn 0.1610 0.9459 0.2819
vn 0.1094 0.9358 0.3350
vn -0.0695 0.9358 0.3457
vn 0.0597 -0.0003 0.9982
vn -0.0687 -0.9361 0.3451
vn 0.1102 -0.9360 0.3344
vn 0.1618 -0.9459 0.2812
vn -0.1263 -0.9460 0.2984
vn -0.2992 0.9458 -0.1263
vn -0.2819 0.9457 0.1617
vn -0.3351 0.9357 0.1101
vn -0.3458 0.9358 -0.0688
vn 0.7771 0.5459 -0.3133
vn 0.7246 0.5650 -0.3946
vn -0.6636 -0.0005 0.7481
vn 0.7481 0.0001 0.6636
vn 0.6636 0.0005 -0.7481
vn 0.7665 0.5648 0.3058
vn 0.8089 0.5458 0.2187
vn -0.7481 -0.0001 -0.6636
vt 0.366516 0.050587
vt 0.765371 0.044841
vt 0.422888 0.931720
vt 0.775490 0.000000
vt 0.323861 0.005338
vt 0.476275 0.902960
vt 0.829873 0.026624
vt 0.666831 0.586344
vt 0.710341 0.541841
vt 0.819737 0.071539
vt 0.584906 0.792177
vt 0.624163 0.540989
vt 0.999999 0.471919
vt 0.667583 0.496578
vt 0.999998 0.427099
vt 0.646403 0.792177
vt 0.938503 0.471919
vt 0.253427 0.077401
vt 0.938502 0.427099
vt 0.296062 0.122628
vt 0.379625 0.906661
vt 0.291750 0.038110
vt 0.723022 0.071539
vt 0.334474 0.083433
vt 0.412459 0.636296
vt 0.042655 0.000000
vt 0.884188 0.000000
vt 0.420990 0.591097
vt 0.000000 0.043629
vt 0.834436 0.026696
vt 0.476275 0.615622
vt 0.394423 0.541842
vt 0.467730 0.660894
vt 0.436376 0.586344
vt 0.843486 1.000000
vt 0.433635 0.496578
vt 0.584906 0.591097
vt 0.475500 0.540988
vt 0.584906 0.635918
vt 0.903242 0.998464
vt 0.646403 0.591097
vt 0.062152 0.118188
vt 0.646403 0.635918
vt 0.104788 0.074579
vt 0.933940 0.026697
vt 0.018609 0.077434
vt 0.371080 0.664596
vt 0.061334 0.033736
vt 0.371080 0.044431
vt 0.884187 0.521642
vt 0.530590 0.886720
vt 0.414519 0.000000
vt 0.884188 0.566483
vt 0.580343 0.860023
vt 0.446051 0.033377
vt 0.834436 0.494943
vt 0.402542 0.077880
vt 0.710739 0.591097
vt 0.483682 0.073388
vt 0.843486 0.572771
vt 0.440262 0.117799
vt 0.834436 0.617838
vt 0.650966 0.591097
vt 0.903242 0.571236
vt 0.104788 0.542258
vt 0.894191 0.616303
vt 0.062153 0.497029
vt 0.480838 0.860023
vt 0.061334 0.586797
vt 0.933940 0.539858
vt 0.018610 0.541474
vt 0.933940 0.494943
vt 0.530591 0.591097
vt 0.775492 0.611325
vt 0.323862 0.611168
vt 0.366517 0.567538
vt 0.765371 0.566482
vt 0.718459 0.077879
vt 0.819738 0.539786
vt 0.580342 0.617794
vt 0.829873 0.584700
vt 0.676506 0.033376
vt 0.674210 0.117799
vt 0.999999 0.044821
vt 0.710739 0.747357
vt 0.632346 0.073388
vt 1.000000 0.000000
vt 0.938502 0.044819
vt 0.296062 0.501471
vt 0.650966 0.747357
vt 0.938502 0.000000
vt 0.253428 0.545078
vt 0.723023 0.539786
vt 0.334475 0.547471
vt 0.480839 0.617794
vt 0.291751 0.591170
s 1
g Chainlink_01_Metall_Schrauben
usemtl Metall_Schrauben
f 9/21/1 20/47/2 11/25/3 2/3/4
f 35/84/5 6/15/5 8/19/5 37/88/5
f 37/89/6 8/20/7 10/24/8 39/94/9
f 12/27/10 21/50/11 24/56/12 13/30/13
f 39/93/14 10/23/15 1/2/16 32/77/17
f 19/45/18 30/72/19 21/50/20 12/27/21
f 15/35/22 26/62/22 28/66/22 17/40/22
f 17/42/23 28/67/24 30/71/25 19/46/26
f 22/51/27 31/73/28 34/80/29 23/54/30
f 13/32/31 24/57/32 26/61/33 15/36/34
f 29/68/35 40/95/36 31/73/37 22/51/38
f 25/58/39 36/85/39 38/90/39 27/63/39
f 27/65/40 38/92/41 40/96/42 29/69/43
f 23/55/44 34/82/45 36/86/46 25/59/47
f 2/3/48 11/25/49 14/33/50 3/6/51
f 3/8/52 14/34/53 16/38/54 5/12/55
f 5/11/56 16/39/56 18/43/56 7/16/56
f 7/18/57 18/44/58 20/48/59 9/22/60
f 33/78/61 4/9/62 6/14/63 35/83/64
f 2/4/48 3/7/51 4/10/65 1/2/66
f 3/8/52 5/12/55 6/14/63 4/9/62
f 5/13/67 7/17/67 8/19/67 6/15/67
f 7/18/57 9/22/60 10/24/8 8/20/7
f 12/28/10 13/31/13 14/33/50 11/25/49
f 13/32/31 15/36/34 16/38/54 14/34/53
f 15/37/68 17/41/68 18/43/68 16/39/68
f 17/42/23 19/46/26 20/48/59 18/44/58
f 22/52/27 23/55/30 24/57/12 21/49/11
f 23/55/44 25/59/47 26/61/33 24/57/32
f 25/60/69 27/64/69 28/66/69 26/62/69
f 27/65/40 29/69/43 30/71/25 28/67/24
f 32/77/70 33/79/71 34/81/29 31/74/28
f 33/78/61 35/83/64 36/86/46 34/82/45
f 35/84/72 37/88/72 38/91/72 36/87/72
f 37/89/6 39/94/9 40/96/42 38/92/41
f 1/1/16 10/24/15 9/22/1 2/5/4
f 21/50/20 30/72/19 29/70/35 22/53/38
f 11/26/3 20/48/2 19/46/18 12/29/21
f 31/75/37 40/96/36 39/94/14 32/76/17
f 32/77/70 1/2/66 4/10/65 33/79/71
