# Blender 3.3.0
# www.blender.org
mtllib Pipe_Ausgang_01.mtl
o Pipe_Ausgang_01.001
v -0.012613 -0.182298 -0.018850
v -0.012613 -0.182298 0.018850
v 0.000000 -0.137120 0.174477
v 0.000000 -0.174477 0.137120
v 0.000000 0.026416 0.220333
v 0.000000 -0.026415 0.220333
v 0.000000 -0.220333 0.026415
v -0.000000 -0.220333 -0.026415
v -0.000000 -0.174478 -0.137120
v -0.000000 -0.137121 -0.174477
v -0.000000 -0.026415 -0.220333
v -0.000000 0.026415 -0.220333
v -0.000000 0.137121 -0.174477
v -0.000000 0.174478 -0.137120
v -0.000000 0.220333 -0.026415
v 0.000000 0.220333 0.026415
v 0.000000 0.174478 0.137120
v 0.000000 0.137121 0.174477
v -0.012613 0.174478 0.137120
v -0.012613 0.137121 0.174477
v -0.012613 0.220333 -0.026415
v -0.012613 0.220333 0.026415
v -0.012613 0.137121 -0.174477
v -0.012613 0.174478 -0.137120
v -0.012613 -0.026415 -0.220333
v -0.012613 0.026415 -0.220333
v -0.012613 -0.174478 -0.137120
v -0.012613 -0.137121 -0.174477
v -0.012613 -0.220333 0.026415
v -0.012613 -0.220333 -0.026415
v -0.012613 -0.137120 0.174477
v -0.012613 -0.174477 0.137120
v -0.012613 0.026416 0.220333
v -0.012613 -0.026415 0.220333
v -0.012613 -0.203961 0.023159
v -0.012613 -0.203961 -0.023159
v -0.026716 0.160598 0.127847
v -0.026716 0.127847 0.160598
v -0.026716 0.203961 -0.023159
v -0.026716 0.203961 0.023159
v -0.026716 0.127847 -0.160598
v -0.026716 0.160598 -0.127847
v -0.026716 -0.023159 -0.203961
v -0.026716 0.023159 -0.203961
v -0.026716 -0.160598 -0.127847
v -0.026716 -0.127847 -0.160598
v -0.026716 -0.127847 0.160598
v -0.026716 -0.160598 0.127847
v -0.026716 0.023159 0.203961
v -0.026716 -0.023159 0.203961
v -0.026716 0.142233 0.115575
v -0.026716 0.115575 0.142232
v -0.026716 0.182297 -0.018850
v -0.026716 0.182297 0.018850
v -0.026716 0.115575 -0.142233
v -0.026716 0.142233 -0.115575
v -0.026716 -0.018850 -0.182298
v -0.026716 0.018850 -0.182298
v -0.026716 -0.142233 -0.115575
v -0.026716 -0.115575 -0.142233
v -0.026716 -0.115575 0.142232
v -0.026716 -0.142233 0.115575
v -0.026716 0.018850 0.182298
v -0.026716 -0.018849 0.182298
v -0.012613 -0.145725 0.107144
v -0.020031 -0.142233 0.115575
v -0.020031 -0.115575 0.142232
v -0.012613 -0.120487 0.132169
v -0.012613 -0.120487 -0.132169
v -0.020031 -0.115575 -0.142233
v -0.020031 -0.142233 -0.115575
v -0.012613 -0.145725 -0.107145
v -0.012613 0.017374 -0.174880
v -0.020031 0.018850 -0.182298
v -0.020031 -0.018850 -0.182298
v -0.012613 -0.017374 -0.174880
v -0.012613 0.135944 -0.111373
v -0.020031 0.142233 -0.115575
v -0.020031 0.115575 -0.142233
v -0.012613 0.111373 -0.135944
v -0.012613 0.174879 0.017374
v -0.020031 0.182297 0.018850
v -0.020031 0.182297 -0.018850
v -0.012613 0.174879 -0.017374
v -0.012613 0.111373 0.135944
v -0.020031 0.115575 0.142232
v -0.020031 0.142233 0.115575
v -0.012613 0.135944 0.111373
v -0.012613 -0.017374 0.174880
v -0.020031 -0.018849 0.182298
v -0.020031 0.018850 0.182298
v -0.012613 0.017374 0.174880
v -0.012613 0.166887 0.132048
v -0.020031 0.160598 0.127847
v -0.020031 0.127847 0.160598
v -0.012613 0.132049 0.166887
v -0.012613 0.211379 -0.024634
v -0.020031 0.203961 -0.023159
v -0.020031 0.203961 0.023159
v -0.012613 0.211379 0.024634
v -0.012613 0.132049 -0.166887
v -0.020031 0.127847 -0.160598
v -0.020031 0.160598 -0.127847
v -0.012613 0.166887 -0.132049
v -0.012613 -0.024634 -0.211380
v -0.020032 -0.023159 -0.203961
v -0.020032 0.023159 -0.203961
v -0.012613 0.024634 -0.211380
v -0.012613 -0.173297 -0.125639
v -0.020031 -0.160598 -0.127847
v -0.020031 -0.127847 -0.160598
v -0.012613 -0.132049 -0.166887
v -0.012613 -0.132049 0.166887
v -0.020031 -0.127847 0.160598
v -0.020031 -0.160598 0.127847
v -0.012613 -0.173297 0.125638
v -0.012613 0.024635 0.211379
v -0.020031 0.023159 0.203961
v -0.020031 -0.023159 0.203961
v -0.012613 -0.024634 0.211379
vn -0.0000 -0.8315 0.5556
vn -0.0000 -0.9808 0.1951
vn -0.0000 0.5556 0.8315
vn -0.0000 0.1951 0.9808
vn -0.0000 0.8315 -0.5556
vn -0.0000 0.9808 -0.1951
vn -0.0000 -0.5556 -0.8315
vn -0.0000 -0.1951 -0.9808
vn -0.9787 -0.0021 -0.2053
vn -1.0000 -0.0000 -0.0000
vn -0.9933 -0.1146 -0.0134
vn 1.0000 -0.0000 -0.0000
vn -0.0000 0.9808 0.1951
vn -0.0000 0.8315 0.5556
vn -0.0000 0.1951 -0.9808
vn -0.0000 0.5556 -0.8315
vn -0.0000 -0.9808 -0.1951
vn -0.0000 -0.8315 -0.5556
vn -0.0000 -0.5556 0.8315
vn -0.0000 -0.1951 0.9808
vn -0.4055 0.7601 0.5079
vn -0.4055 0.8965 0.1783
vn -0.4055 0.8965 -0.1783
vn -0.4055 0.7601 -0.5079
vn -0.4055 0.5079 -0.7601
vn -0.4055 0.1783 -0.8965
vn -0.4055 -0.1783 -0.8965
vn -0.4055 -0.5079 -0.7601
vn -0.9933 -0.1146 0.0134
vn -0.4055 -0.5079 0.7601
vn -0.4055 -0.1783 0.8965
vn -0.4055 0.1783 0.8965
vn -0.4055 0.5079 0.7601
vn -0.6504 -0.7586 0.0403
vn -0.0000 -0.7071 -0.7071
vn -0.6504 -0.7586 -0.0403
vn -0.0000 -0.7071 0.7071
vn -0.9417 0.0656 0.3299
vn -0.9417 -0.0656 0.3299
vn -0.3710 -0.9108 -0.1812
vn -0.3710 -0.7721 -0.5159
vn -0.9417 -0.1868 0.2796
vn -0.3710 -0.5159 -0.7721
vn -0.3710 -0.1812 -0.9108
vn -0.9787 -0.0021 0.2053
vn -0.9417 -0.1869 -0.2796
vn -0.3710 -0.5159 0.7721
vn -0.3710 -0.7721 0.5159
vn -0.9417 -0.0656 -0.3299
vn -0.9417 0.0656 -0.3299
vn -0.3710 -0.9108 0.1812
vn -0.3710 0.1812 0.9108
vn -0.3710 -0.1812 0.9108
vn -0.9417 0.1868 -0.2796
vn -0.9417 0.2796 -0.1868
vn -0.9417 0.3299 -0.0656
vn -0.9417 0.3299 0.0656
vn -0.4282 0.2055 0.8800
vn -0.0000 0.0980 0.9952
vn -0.4282 0.2055 -0.8800
vn -0.0000 0.0980 -0.9952
vn -0.3710 0.1812 -0.9108
vn -0.3378 0.4934 -0.8015
vn -0.9417 0.1869 0.2796
vn -0.3378 0.4934 0.8015
vn -0.9417 0.2796 0.1868
vn -0.9088 0.0814 -0.4092
vn -0.9088 -0.0814 -0.4092
vn -0.9088 -0.2318 -0.3469
vn -0.9088 -0.3469 -0.2318
vn -0.9088 -0.4092 -0.0814
vn -0.9088 -0.4092 0.0814
vn -0.9088 -0.3469 0.2318
vn -0.9088 -0.2318 0.3469
vn -0.9088 -0.0814 0.4092
vn -0.9088 0.0814 0.4092
vn -0.8450 0.3437 0.4098
vn -0.8450 0.3437 -0.4098
vt 0.690102 0.464018
vt 0.649527 0.446822
vt 0.497831 0.326088
vt 0.443727 0.694303
vt 0.474279 0.384265
vt 0.443727 0.632543
vt 0.474279 0.125088
vt 0.443727 0.886739
vt 0.497831 0.183265
vt 0.443727 0.834382
vt 0.443727 0.513790
vt 0.375572 0.485255
vt 0.448064 0.513790
vt 0.318712 0.509353
vt 0.448064 0.555232
vt 0.179120 0.509353
vt 0.448064 0.683223
vt 0.122259 0.485256
vt 0.448064 0.746051
vt 0.448064 0.881369
vt 0.023552 0.384264
vt 0.522934 0.513790
vt 0.000000 0.326088
vt 0.522934 0.571967
vt 0.000000 0.183265
vt 0.522934 0.714790
vt 0.497831 0.885189
vt 0.023553 0.125088
vt 0.522934 0.772967
vt 0.122259 0.024098
vt 0.497831 0.753237
vt 0.179120 0.000000
vt 0.497831 0.690268
vt 0.318712 0.000000
vt 0.497831 0.558317
vt 0.443727 0.966087
vt 0.375572 0.024097
vt 0.497831 0.513790
vt 0.483137 0.558317
vt 0.681288 0.000000
vt 0.429033 0.966087
vt 0.483137 0.513790
vt 0.624428 0.024097
vt 0.483137 0.753237
vt 0.877741 0.024098
vt 0.483137 0.690268
vt 0.820880 0.000000
vt 0.537628 0.714790
vt 1.000000 0.183265
vt 0.483137 0.885189
vt 0.537628 0.772967
vt 0.976448 0.125088
vt 0.462758 0.881369
vt 0.537628 0.513790
vt 0.976448 0.384264
vt 0.537628 0.571967
vt 1.000000 0.326088
vt 0.462758 0.683223
vt 0.820880 0.509353
vt 0.462758 0.746051
vt 0.877741 0.485256
vt 0.429033 0.513790
vt 0.462758 0.513790
vt 0.624428 0.485255
vt 0.462758 0.555232
vt 0.681288 0.509353
vt 0.429033 0.694303
vt 0.502169 0.326088
vt 0.429033 0.632543
vt 0.525721 0.384265
vt 0.429033 0.886739
vt 0.525721 0.125088
vt 0.429033 0.834382
vt 0.502169 0.183265
vt 0.635231 0.468713
vt 0.685082 0.489839
vt 0.050516 0.909278
vt 0.502169 0.552828
vt 0.583497 0.821339
vt 0.088670 0.948315
vt 0.502169 0.513790
vt 0.502169 0.732813
vt 0.000000 0.729292
vt 0.502169 0.677606
vt 0.000000 0.784499
vt 0.558394 0.699855
vt 0.088670 0.565476
vt 0.502169 0.857592
vt 0.558394 0.750859
vt 0.050516 0.604513
vt 0.615532 0.696836
vt 0.558394 0.513790
vt 0.264585 0.513790
vt 0.558394 0.564795
vt 0.210627 0.513790
vt 0.615532 0.513790
vt 0.619869 0.560050
vt 0.424695 0.604513
vt 0.615532 0.568873
vt 0.386541 0.565476
vt 0.583497 0.567937
vt 0.386541 0.948315
vt 0.583497 0.513790
vt 0.627656 0.590815
vt 0.424695 0.909278
vt 0.583497 0.746304
vt 0.210626 1.000000
vt 0.583497 0.700402
vt 0.264584 1.000000
vt 0.603408 0.676854
vt 0.071911 0.894651
vt 0.603408 0.632021
vt 0.102966 0.926424
vt 0.603408 0.818254
vt 0.025237 0.734428
vt 0.471013 0.890698
vt 0.603408 0.788682
vt 0.025237 0.779363
vt 0.102966 0.587366
vt 0.471013 0.742870
vt 0.071911 0.619139
vt 0.471013 0.786941
vt 0.259565 0.539612
vt 0.471013 0.583119
vt 0.215647 0.539612
vt 0.471013 0.620480
vt 0.619869 0.586377
vt 0.403300 0.619139
vt 0.619869 0.523839
vt 0.372246 0.587366
vt 0.471013 0.513790
vt 0.619869 0.555613
vt 0.372245 0.926424
vt 0.579160 0.562995
vt 0.627656 0.616922
vt 0.403300 0.894651
vt 0.579160 0.521481
vt 0.603408 0.513790
vt 0.215646 0.974179
vt 0.579160 0.729297
vt 0.259564 0.974179
vt 0.579160 0.687783
vt 0.562731 0.513790
vt 0.570802 0.366275
vt 0.619869 0.616922
vt 0.563285 0.358584
vt 0.571373 0.521481
vt 0.571373 0.562995
vt 0.555120 0.327069
vt 0.562731 0.552996
vt 0.636297 0.543617
vt 0.839621 0.447641
vt 0.478800 0.513790
vt 0.627656 0.555613
vt 0.852642 0.446822
vt 0.627656 0.586377
vt 0.627656 0.523839
vt 0.812067 0.464018
vt 0.636297 0.513790
vt 0.801436 0.464018
vt 0.947049 0.315312
vt 0.478800 0.620480
vt 0.955691 0.317070
vt 0.478800 0.583119
vt 0.938884 0.358584
vt 0.931558 0.353576
vt 0.931558 0.155777
vt 0.478800 0.786941
vt 0.938884 0.150769
vt 0.478800 0.742870
vt 0.955691 0.192282
vt 0.947049 0.194041
vt 0.810347 0.054177
vt 0.595621 0.788682
vt 0.812066 0.045335
vt 0.595621 0.818254
vt 0.478800 0.890698
vt 0.852641 0.062531
vt 0.847746 0.070026
vt 0.654422 0.070026
vt 0.595621 0.632021
vt 0.649527 0.062531
vt 0.595621 0.676854
vt 0.690102 0.045335
vt 0.691821 0.054177
vt 0.555120 0.194041
vt 0.562731 0.686024
vt 0.546478 0.192283
vt 0.571373 0.687783
vt 0.595621 0.513790
vt 0.571373 0.729297
vt 0.563285 0.150769
vt 0.570611 0.155777
vt 0.683363 0.010672
vt 0.509955 0.552828
vt 0.685082 0.019514
vt 0.591284 0.821339
vt 0.509955 0.513790
vt 0.635231 0.040640
vt 0.630336 0.033145
vt 0.518597 0.734572
vt 0.871832 0.033145
vt 0.509955 0.732813
vt 0.866937 0.040640
vt 0.509955 0.677606
vt 0.817086 0.019514
vt 0.518597 0.675848
vt 0.818805 0.010672
vt 0.989570 0.185387
vt 0.541966 0.701614
vt 0.980928 0.187146
vt 0.550607 0.699855
vt 0.509955 0.857592
vt 0.550607 0.750859
vt 0.960279 0.136142
vt 0.967605 0.131133
vt 0.967605 0.378219
vt 0.607745 0.696836
vt 0.550607 0.513790
vt 0.960279 0.373211
vt 0.980928 0.322206
vt 0.550607 0.564795
vt 0.989570 0.323965
vt 0.541966 0.563036
vt 0.809049 0.502816
vt 0.607745 0.513790
vt 0.627656 0.560050
vt 0.817087 0.489839
vt 0.607745 0.568873
vt 0.866938 0.468713
vt 0.871833 0.476208
vt 0.512599 0.323965
vt 0.591284 0.567937
vt 0.521241 0.322207
vt 0.591284 0.513790
vt 0.619869 0.590815
vt 0.541890 0.373211
vt 0.538605 0.388202
vt 0.534564 0.131134
vt 0.591284 0.746304
vt 0.541890 0.136142
vt 0.591284 0.700402
vt 0.521241 0.187146
vt 0.512599 0.185388
s 1
g Pipe_Ausgang_01.001_Messgerät_Metall
usemtl Messgerät_Metall
f 32/69/1 29/62/2 7/11/2 4/6/1
f 20/41/3 33/71/4 5/8/4 18/36/3
f 24/50/5 21/44/6 15/31/6 14/27/5
f 28/60/7 25/53/8 11/20/8 10/19/7
f 65/144/9 2/2/10 35/75/10 116/238/11
f 5/7/12 6/9/12 3/3/12 4/5/12 7/12/12 8/14/12 9/16/12 10/18/12 11/21/12 12/23/12 13/25/12 14/28/12 15/30/12 16/32/12 17/34/12 18/37/12
f 22/46/13 19/39/14 17/35/14 16/33/13
f 26/56/15 23/48/16 13/26/16 12/24/15
f 30/65/17 27/58/18 9/17/18 8/15/17
f 20/42/3 18/38/3 17/35/14 19/39/14
f 15/31/6 21/44/6 22/46/13 16/33/13
f 24/51/5 14/29/5 13/26/16 23/48/16
f 11/22/8 25/54/8 26/56/15 12/24/15
f 28/60/7 10/19/7 9/17/18 27/58/18
f 7/13/2 29/63/2 30/65/17 8/15/17
f 32/69/1 4/6/1 3/4/19 31/67/19
f 5/8/4 33/71/4 34/73/20 6/10/20
f 34/73/20 31/67/19 3/4/19 6/10/20
f 94/195/21 99/205/22 40/84/13 37/78/14
f 98/203/23 103/213/24 42/88/5 39/82/6
f 102/212/25 107/222/26 44/94/15 41/86/16
f 106/218/27 111/229/28 46/99/7 43/91/8
f 36/76/10 109/225/29 27/59/10 30/66/10
f 35/75/10 36/76/10 30/66/10 29/64/10
f 114/233/30 119/242/31 50/108/20 47/101/19
f 116/238/11 35/75/10 29/64/10 32/70/10
f 99/205/22 98/203/23 39/82/6 40/84/13
f 118/240/32 95/197/33 38/79/3 49/106/4
f 103/214/24 102/212/25 41/86/16 42/89/5
f 107/222/26 106/219/27 43/92/8 44/94/15
f 111/229/28 110/226/34 45/96/35 46/99/7
f 115/235/36 114/233/30 47/101/19 48/103/37
f 119/242/31 118/240/32 49/106/4 50/108/20
f 117/239/38 120/244/39 34/74/10 33/72/10
f 82/174/40 87/183/41 51/110/18 54/117/17
f 113/232/42 116/238/11 32/70/10 31/68/10
f 86/181/43 91/190/44 63/138/8 52/112/7
f 1/1/10 72/160/45 109/225/29 36/76/10
f 2/2/10 1/1/10 36/76/10 35/75/10
f 109/225/29 112/231/46 28/61/10 27/59/10
f 79/170/47 78/168/48 56/122/1 55/120/19
f 105/217/49 108/223/50 26/57/10 25/55/10
f 83/176/51 82/174/40 54/117/17 53/114/2
f 75/164/52 74/162/53 58/126/20 57/124/4
f 101/209/54 104/216/55 24/52/10 23/49/10
f 87/183/41 86/181/43 52/112/7 51/110/18
f 97/202/56 100/208/57 22/47/10 21/45/10
f 110/227/34 71/156/58 59/127/59 45/97/19
f 66/145/60 115/236/36 48/104/7 62/135/61
f 51/111/10 52/113/10 38/80/10 37/77/10
f 53/115/10 54/118/10 40/85/10 39/83/10
f 55/119/10 56/121/10 42/90/10 41/87/10
f 57/123/10 58/125/10 44/95/10 43/93/10
f 59/128/10 60/130/10 46/100/10 45/98/10
f 61/133/10 62/136/10 48/105/10 47/102/10
f 63/139/10 64/141/10 50/109/10 49/107/10
f 64/141/10 61/133/10 47/102/10 50/109/10
f 52/113/10 63/139/10 49/107/10 38/80/10
f 54/118/10 51/111/10 37/77/10 40/85/10
f 56/121/10 53/115/10 39/83/10 42/90/10
f 58/125/10 55/119/10 41/87/10 44/95/10
f 60/130/10 57/123/10 43/93/10 46/100/10
f 78/168/48 83/177/51 53/116/2 56/122/1
f 90/189/62 67/148/63 61/134/16 64/142/15
f 120/244/39 113/232/42 31/68/10 34/74/10
f 74/162/53 79/170/47 55/120/19 58/126/20
f 96/200/64 117/239/38 33/72/10 20/43/10
f 70/153/65 75/164/52 57/124/4 60/131/3
f 100/208/57 93/194/66 19/40/10 22/47/10
f 104/216/55 97/202/56 21/45/10 24/52/10
f 89/186/67 92/193/68 85/180/69 88/185/70 81/173/71 84/179/72 77/167/73 80/172/74 73/161/75 76/166/76 69/152/77 72/160/45 1/1/10 2/2/10 65/144/9 68/149/78
f 108/223/50 101/209/54 23/49/10 26/57/10
f 95/198/33 94/195/21 37/78/14 38/81/3
f 112/231/46 105/217/49 25/55/10 28/61/10
f 71/157/58 70/154/65 60/132/3 59/129/59
f 93/194/66 96/200/64 20/43/10 19/40/10
f 91/191/44 90/189/62 64/142/15 63/140/8
f 94/196/21 95/199/33 96/200/64 93/194/66
f 98/203/23 99/205/22 100/207/57 97/201/56
f 102/211/25 103/215/24 104/216/55 101/209/54
f 106/220/27 107/221/26 108/223/50 105/217/49
f 110/228/34 111/230/28 112/231/46 109/225/29
f 114/234/30 115/237/36 116/238/11 113/232/42
f 118/241/32 119/243/31 120/244/39 117/239/38
f 119/243/31 114/234/30 113/232/42 120/244/39
f 117/239/38 96/200/64 95/199/33 118/241/32
f 93/194/66 100/208/57 99/206/22 94/196/21
f 97/202/56 104/216/55 103/215/24 98/204/23
f 101/210/54 108/224/50 107/222/26 102/212/25
f 105/217/49 112/231/46 111/230/28 106/220/27
f 88/185/70 85/180/69 86/182/43 87/184/41
f 84/179/72 81/173/71 82/175/40 83/178/51
f 80/172/74 77/167/73 78/169/48 79/171/47
f 76/166/76 73/161/75 74/163/53 75/165/52
f 72/159/45 69/151/77 70/154/65 71/157/58
f 68/150/78 65/143/9 66/147/60 67/148/63
f 92/193/68 89/186/67 90/188/62 91/192/44
f 89/187/67 68/150/78 67/148/63 90/189/62
f 91/192/44 86/182/43 85/180/69 92/193/68
f 87/184/41 82/175/40 81/173/71 88/185/70
f 83/178/51 78/169/48 77/167/73 84/179/72
f 79/171/47 74/163/53 73/161/75 80/172/74
f 75/165/52 70/155/65 69/152/77 76/166/76
f 109/225/29 72/160/45 71/158/58 110/228/34
f 65/144/9 116/238/11 115/237/36 66/146/60
f 67/148/63 66/147/60 62/137/61 61/134/16
