# Blender 3.4.1
# www.blender.org
mtllib P_eAsset_01.mtl
o P_eAsset_01
v 0.000000 -0.000000 -0.127544
v 0.000000 0.041255 -0.104532
v 0.074968 -0.000000 -0.103186
v 0.061443 0.041255 -0.084568
v 0.121302 -0.000000 -0.039413
v 0.099417 0.041255 -0.032303
v 0.121302 -0.000000 0.039413
v 0.099417 0.041255 0.032303
v 0.074968 -0.000000 0.103188
v 0.061443 0.041255 0.084572
v 0.000000 -0.000000 0.127544
v 0.000000 0.041255 0.104532
v -0.074968 -0.000000 0.103188
v -0.061443 0.041255 0.084572
v -0.121302 -0.000000 0.039413
v -0.099417 0.041255 0.032303
v -0.121302 -0.000000 -0.039413
v -0.099417 0.041255 -0.032303
v -0.074968 -0.000000 -0.103186
v -0.061443 0.041255 -0.084568
v 0.074968 0.041255 -0.103186
v 0.000000 0.041255 -0.127544
v 0.121302 0.041255 -0.039413
v 0.121302 0.041255 0.039413
v 0.074968 0.041255 0.103188
v 0.000000 0.041255 0.127544
v -0.074968 0.041255 0.103188
v -0.121302 0.041255 0.039413
v -0.121302 0.041255 -0.039413
v -0.074968 0.041255 -0.103186
v 0.052872 0.071482 -0.072769
v 0.000000 0.071482 -0.089949
v 0.085546 0.071482 -0.027796
v 0.085546 0.071482 0.027796
v 0.052872 0.071482 0.072773
v 0.000000 0.071482 0.089949
v -0.052872 0.071482 0.072773
v -0.085546 0.071482 0.027796
v -0.085546 0.071482 -0.027796
v -0.052872 0.071482 -0.072769
v 0.061443 0.071482 -0.084568
v 0.000000 0.071482 -0.104532
v 0.099417 0.071482 -0.032303
v 0.099417 0.071482 0.032303
v 0.061443 0.071482 0.084572
v 0.000000 0.071482 0.104532
v -0.061443 0.071482 0.084572
v -0.099417 0.071482 0.032303
v -0.099417 0.071482 -0.032303
v -0.061443 0.071482 -0.084568
v 0.052872 0.055812 -0.072769
v 0.000000 0.055812 -0.089949
v 0.085546 0.055812 -0.027796
v 0.085546 0.055812 0.027796
v 0.052872 0.055812 0.072773
v 0.000000 0.055812 0.089949
v -0.052872 0.055812 0.072773
v -0.085546 0.055812 0.027796
v -0.085546 0.055812 -0.027796
v -0.052872 0.055812 -0.072769
v 0.054766 0.054448 -0.073231
v 0.000662 0.054448 -0.090317
v 0.087351 0.054448 0.027056
v 0.053623 0.054448 0.072681
v -0.000662 0.054448 0.090317
v -0.054766 0.054448 0.073235
v -0.087351 0.054448 -0.027056
v -0.053623 0.054448 -0.072678
v 0.036671 0.054448 -0.079111
v 0.018757 0.054448 -0.084438
v -0.064804 0.054448 -0.057285
v -0.076168 0.054448 -0.042448
v 0.064804 0.054448 0.057289
v 0.076168 0.054448 0.042448
v -0.036671 0.054448 0.079115
v -0.018757 0.054448 0.084438
v 0.083998 0.054448 -0.033649
v 0.087732 0.054448 -0.022148
v -0.083998 0.054448 0.033649
v -0.087732 0.054448 0.022148
v 0.087540 0.054448 0.015043
v 0.087540 0.054448 0.002447
v 0.087732 0.054448 -0.009554
v -0.076593 0.054448 0.043840
v -0.069384 0.054448 0.053438
v -0.061981 0.054448 0.063629
v 0.076593 0.054448 -0.043839
v 0.069384 0.054448 -0.053434
v 0.061981 0.054448 -0.063625
v -0.087540 0.054448 -0.015043
v -0.087540 0.054448 -0.002449
v -0.087732 0.054448 0.009554
v 0.018757 0.064216 -0.084438
v 0.000662 0.064216 -0.090317
v 0.076168 0.064216 0.042448
v 0.087351 0.064216 0.027056
v -0.000662 0.064216 0.090317
v 0.053623 0.064216 0.072681
v -0.018757 0.064216 0.084438
v -0.076168 0.064216 -0.042448
v -0.087351 0.064216 -0.027056
v -0.053623 0.064216 -0.072678
v 0.054766 0.064216 -0.073231
v -0.054766 0.064216 0.073235
v 0.036671 0.064216 -0.079111
v -0.064804 0.064216 -0.057285
v 0.064804 0.064216 0.057289
v -0.036671 0.064216 0.079115
v 0.083998 0.064216 -0.033649
v -0.087732 0.064216 0.022148
v -0.083998 0.064216 0.033649
v 0.087732 0.064216 -0.022148
v -0.087732 0.064216 0.009554
v 0.087732 0.064216 -0.009554
v 0.087540 0.064216 0.015043
v 0.087540 0.064216 0.002447
v -0.076593 0.064216 0.043840
v -0.069384 0.064216 0.053438
v -0.061981 0.064216 0.063629
v 0.076593 0.064216 -0.043839
v 0.069384 0.064216 -0.053434
v 0.061981 0.064216 -0.063625
v -0.087540 0.064216 -0.015043
v -0.087540 0.064216 -0.002449
vn -0.0000 -0.0000 -1.0000
vn 0.5878 -0.0000 -0.8090
vn 0.9511 -0.0000 -0.3090
vn 0.9511 -0.0000 0.3090
vn 0.5878 -0.0000 0.8090
vn -0.0000 -0.0000 1.0000
vn -0.5878 -0.0000 0.8090
vn -0.9511 -0.0000 0.3090
vn -0.9511 -0.0000 -0.3090
vn -0.5878 -0.0000 -0.8090
vn -0.0000 -1.0000 -0.0000
vn -0.0000 1.0000 -0.0000
vn 0.3090 -0.0000 0.9511
vn -0.8091 -0.0000 0.5877
vn -0.3090 -0.0000 -0.9511
vn 0.3090 -0.0000 0.9510
vn 0.3091 -0.0000 -0.9510
vn -0.8091 -0.0000 -0.5877
vn 0.8090 -0.0000 -0.5879
vn -1.0000 -0.0000 -0.0000
vn 0.8091 -0.0000 -0.5877
vn 1.0000 -0.0000 -0.0000
vn 0.3090 -0.0000 -0.9511
vn 0.8091 -0.0000 0.5877
vn 0.8090 -0.0000 0.5878
vn -0.3091 -0.0000 0.9510
vn -0.3090 -0.0000 0.9511
vn -0.8090 -0.0000 -0.5878
vn -0.8090 -0.0000 0.5878
vt 0.928334 0.565501
vt 0.205040 0.426394
vt 0.615120 0.042417
vt 0.951459 0.197709
vt 0.928334 0.435081
vt 0.851390 0.776531
vt 0.081003 0.386092
vt 0.513460 0.075449
vt 0.951459 0.090817
vt 0.851390 0.671018
vt 0.004343 0.280579
vt 0.450632 0.161923
vt 0.910087 0.873073
vt 0.951459 0.004343
vt 0.851390 0.540597
vt 0.004343 0.150158
vt 0.450632 0.268815
vt 0.910087 0.766181
vt 0.851390 0.435081
vt 0.892761 0.240277
vt 0.081003 0.044642
vt 0.513460 0.355295
vt 0.910087 0.679701
vt 0.405737 0.916982
vt 0.892761 0.134763
vt 0.205040 0.004343
vt 0.615120 0.388320
vt 0.405737 0.830503
vt 0.892761 0.004343
vt 0.774445 0.776531
vt 0.329077 0.044642
vt 0.716779 0.355295
vt 0.405737 0.723614
vt 0.405737 0.714927
vt 0.774445 0.671015
vt 0.405737 0.150158
vt 0.779607 0.268815
vt 0.405737 0.628447
vt 0.774445 0.540594
vt 0.405737 0.280579
vt 0.779607 0.161923
vt 0.405737 0.521555
vt 0.774445 0.435081
vt 0.928334 0.671014
vt 0.329077 0.386092
vt 0.716779 0.075449
vt 0.951459 0.284186
vt 0.405737 0.435081
vt 0.860076 0.435081
vt 0.783132 0.776531
vt 0.491083 0.044645
vt 0.860076 0.565501
vt 0.615120 0.004343
vt 0.783132 0.671018
vt 0.414423 0.150158
vt 0.783132 0.540597
vt 0.414423 0.280579
vt 0.783132 0.435081
vt 0.824503 0.240277
vt 0.491083 0.386095
vt 0.824503 0.134763
vt 0.615120 0.426394
vt 0.824503 0.004343
vt 0.706187 0.776531
vt 0.739157 0.386095
vt 0.706187 0.671015
vt 0.815817 0.280579
vt 0.706187 0.540594
vt 0.815817 0.150158
vt 0.706187 0.435081
vt 0.860076 0.671014
vt 0.739157 0.044645
vt 0.081353 0.487634
vt 0.449037 0.741412
vt 0.824503 0.415356
vt 0.168831 0.459210
vt 0.824503 0.323377
vt 0.027292 0.562043
vt 0.449037 0.815822
vt 0.027292 0.654021
vt 0.449037 0.907799
vt 0.859117 0.248963
vt 0.081353 0.728437
vt 0.449037 0.982215
vt 0.168831 0.756854
vt 0.859117 0.323379
vt 0.256308 0.728437
vt 0.859117 0.415356
vt 0.414423 0.741412
vt 0.310370 0.654021
vt 0.414423 0.815828
vt 0.310370 0.562043
vt 0.414423 0.907806
vt 0.256308 0.487634
vt 0.414423 0.982215
vt 0.824503 0.248963
vt 0.901448 0.090817
vt 0.067171 0.468112
vt 0.901448 0.197709
vt 0.168831 0.435081
vt 0.860076 0.873073
vt 0.901448 0.004343
vt 0.004343 0.554586
vt 0.860076 0.766181
vt 0.004343 0.661478
vt 0.860076 0.679701
vt 0.355725 0.916982
vt 0.067171 0.747958
vt 0.355725 0.830503
vt 0.168831 0.780983
vt 0.355725 0.723614
vt 0.355725 0.714927
vt 0.270490 0.747958
vt 0.355725 0.628447
vt 0.333318 0.661478
vt 0.355725 0.521555
vt 0.333318 0.554586
vt 0.901448 0.284186
vt 0.355725 0.435081
vt 0.270490 0.468112
vt 0.474964 0.741412
vt 0.850430 0.415356
vt 0.643440 0.704302
vt 0.555962 0.732726
vt 0.850430 0.323377
vt 0.474964 0.815822
vt 0.697501 0.629892
vt 0.474964 0.907799
vt 0.697501 0.537914
vt 0.885044 0.248963
vt 0.474964 0.982215
vt 0.643440 0.463498
vt 0.885044 0.323379
vt 0.555962 0.435081
vt 0.885044 0.415356
vt 0.440350 0.741412
vt 0.468484 0.463498
vt 0.440350 0.815828
vt 0.414423 0.537914
vt 0.440350 0.907806
vt 0.414423 0.629892
vt 0.468484 0.704302
vt 0.440350 0.982215
vt 0.850430 0.248963
vt 0.747196 0.985238
vt 0.799293 0.785217
vt 0.122237 0.821149
vt 0.772044 0.785217
vt 0.196780 0.815137
vt 0.147085 0.789670
vt 0.097389 0.897553
vt 0.097389 0.821149
vt 0.772044 0.985236
vt 0.824140 0.785217
vt 0.747196 0.785217
vt 0.221627 0.815137
vt 0.122237 0.897551
vt 0.171932 0.789670
vt 0.799293 0.816697
vt 0.072542 0.907275
vt 0.122237 0.789670
vt 0.171932 0.815137
vt 0.072542 0.789670
vt 0.799293 0.975510
vt 0.221627 0.789670
vt 0.147085 0.815137
vt 0.047694 0.789670
vt 0.824140 0.975509
vt 0.196780 0.789670
vt 0.824140 0.816697
vt 0.097389 0.789670
vt 0.047694 0.907277
vt 0.672653 0.983112
vt 0.697501 0.741412
vt 0.579042 0.741412
vt 0.280009 0.789670
vt 0.579042 0.983112
vt 0.538033 0.989551
vt 0.672653 0.741412
vt 0.317157 0.789670
vt 0.722349 0.995657
vt 0.230314 0.810511
vt 0.628737 0.741412
vt 0.230314 0.789670
vt 0.538033 0.741412
vt 0.280009 0.810507
vt 0.538033 0.972690
vt 0.271323 0.819197
vt 0.628737 0.962270
vt 0.271323 0.836058
vt 0.722349 0.785217
vt 0.697501 0.758272
vt 0.296170 0.819194
vt 0.603889 0.962273
vt 0.296170 0.836055
vt 0.953182 0.742521
vt 0.255162 0.810507
vt 0.953182 0.952962
vt 0.255162 0.789670
vt 0.603889 0.741412
vt 0.317157 0.810507
vt 0.697501 0.989550
vt 0.022847 0.935040
vt 0.056381 0.907275
vt 0.106076 0.789670
vt 0.004344 0.909572
vt 0.106076 0.821149
vt 0.483653 0.766879
vt 0.807979 0.975509
vt 0.180619 0.789670
vt 0.502156 0.741412
vt 0.755883 0.785217
vt 0.180619 0.815137
vt 0.832830 0.905117
vt 0.081228 0.821149
vt 0.832827 0.810680
vt 0.130924 0.789670
vt 0.081228 0.897553
vt 0.851331 0.930585
vt 0.081228 0.789670
vt 0.031533 0.907277
vt 0.510843 0.766878
vt 0.783132 0.975510
vt 0.205466 0.789670
vt 0.529347 0.741412
vt 0.731035 0.785217
vt 0.205466 0.815137
vt 0.004343 0.815134
vt 0.106076 0.897551
vt 0.155771 0.789670
vt 0.529346 0.988647
vt 0.731035 0.985238
vt 0.783132 0.785217
vt 0.502156 0.988649
vt 0.755883 0.985236
vt 0.807979 0.785217
vt 0.510842 0.963180
vt 0.783132 0.816697
vt 0.022847 0.789670
vt 0.155771 0.815137
vt 0.056381 0.789670
vt 0.851331 0.785217
vt 0.130924 0.815137
vt 0.031533 0.789670
vt 0.483651 0.963183
vt 0.807979 0.816697
vt 0.979964 0.303097
vt 0.656492 0.983112
vt 0.681340 0.741412
vt 0.979964 0.004343
vt 0.656492 0.741412
vt 0.333318 0.789670
vt 0.956842 0.733834
vt 0.562881 0.983112
vt 0.554194 0.989551
vt 0.956842 0.435081
vt 0.562881 0.741412
vt 0.296170 0.789670
vt 0.960146 0.010782
vt 0.333318 0.810507
vt 0.681340 0.989550
vt 0.937025 0.441520
vt 0.554194 0.741412
vt 0.296170 0.810507
vt 0.965529 0.441521
vt 0.706187 0.995657
vt 0.246475 0.810511
vt 0.985350 0.435081
vt 0.612576 0.741412
vt 0.246475 0.789670
vt 0.937021 0.727393
vt 0.554194 0.972690
vt 0.985350 0.708078
vt 0.255162 0.819197
vt 0.612576 0.962270
vt 0.965529 0.701640
vt 0.255162 0.836058
vt 0.706187 0.785217
vt 0.960145 0.296655
vt 0.681340 0.758272
vt 0.985349 0.989758
vt 0.280009 0.819194
vt 0.587728 0.962273
vt 0.965529 0.983320
vt 0.280009 0.836055
vt 0.937021 0.742521
vt 0.965532 0.723203
vt 0.271323 0.810507
vt 0.937021 0.952962
vt 0.985349 0.716764
vt 0.271323 0.789670
vt 0.587728 0.741412
s 1
g P_eAsset_01_Rohr
usemtl Rohr
f 51/123/12 52/124/12 60/142/12 59/141/12
f 53/127/12 51/123/12 59/141/12 58/139/12
f 54/129/12 53/127/12 58/139/12 57/137/12
f 55/132/12 54/129/12 57/137/12 56/134/12
f 109/247/12 120/279/12 113/259/12 110/250/12
f 115/265/12 116/268/12 118/273/12 119/276/12
f 98/216/12 107/242/12 99/219/12 97/214/12
f 103/231/12 105/237/12 100/222/12 101/225/12
f 95/208/12 96/211/12 104/234/12 108/245/12
f 114/262/12 112/256/12 111/253/12 117/271/12
f 93/203/12 94/206/12 102/228/12 106/239/12
f 121/281/12 122/284/12 123/287/12 124/290/12
f 62/147/1 68/157/10 102/229/10 94/207/1
f 75/170/6 74/168/5 95/209/5 108/246/6
f 67/155/13 61/145/13 103/232/13 101/226/13
f 85/188/14 86/190/14 119/277/14 118/274/14
f 63/148/15 66/153/15 104/235/15 96/212/15
f 86/191/16 81/181/16 115/266/16 119/278/16
f 80/179/13 77/173/13 109/248/13 110/251/13
f 61/146/17 69/159/1 105/238/1 103/233/17
f 82/183/15 85/189/15 118/275/15 116/269/15
f 84/187/13 83/185/13 114/263/13 117/272/13
f 78/175/15 79/177/15 111/254/15 112/257/15
f 68/158/10 71/162/18 106/240/18 102/230/10
f 77/174/19 87/192/19 120/280/19 109/249/19
f 92/201/20 80/180/20 110/252/20 113/260/20
f 69/159/1 72/164/10 100/223/10 105/238/1
f 88/193/21 89/195/21 122/285/21 121/282/21
f 83/186/22 78/176/22 112/258/22 114/264/22
f 71/163/16 70/160/16 93/204/16 106/241/16
f 70/161/23 62/147/1 94/207/1 93/205/23
f 64/150/5 73/166/24 107/243/24 98/217/5
f 90/197/20 91/199/20 124/291/20 123/288/20
f 74/169/5 63/149/25 96/213/25 95/210/5
f 65/152/6 64/151/5 98/218/5 97/215/6
f 81/182/22 82/184/22 116/270/22 115/267/22
f 66/154/26 75/170/6 108/246/6 104/236/26
f 87/192/15 92/202/15 113/261/15 120/280/15
f 76/171/27 65/152/6 97/215/6 99/220/27
f 91/200/13 88/194/13 121/283/13 124/292/13
f 72/165/10 67/156/28 101/227/28 100/224/10
f 79/178/29 84/187/29 117/272/29 111/255/29
f 73/167/15 76/172/15 99/221/15 107/244/15
f 89/196/15 90/198/15 123/289/15 122/286/15
g P_eAsset_01_Verbindung
usemtl Verbindung
f 1/1/1 22/52/1 21/49/2 3/5/2
f 3/6/2 21/50/2 23/54/3 5/10/3
f 5/10/3 23/54/3 24/56/4 7/15/4
f 7/15/4 24/56/4 25/58/5 9/19/5
f 9/20/5 25/59/5 26/61/6 11/25/6
f 11/25/6 26/61/6 27/63/7 13/29/7
f 13/30/7 27/64/7 28/66/8 15/35/8
f 15/35/8 28/66/8 29/68/9 17/39/9
f 17/39/9 29/68/9 30/70/10 19/43/10
f 19/44/10 30/71/10 22/52/1 1/1/1
f 1/2/11 3/7/11 5/11/11 7/16/11 9/21/11 11/26/11 13/31/11 15/36/11 17/40/11 19/45/11
f 2/3/12 4/8/12 21/51/12 22/53/12
f 4/8/12 6/12/12 23/55/12 21/51/12
f 6/12/12 8/17/12 24/57/12 23/55/12
f 8/17/12 10/22/12 25/60/12 24/57/12
f 10/22/12 12/27/12 26/62/12 25/60/12
f 12/27/12 14/32/12 27/65/12 26/62/12
f 14/32/12 16/37/12 28/67/12 27/65/12
f 16/37/12 18/41/12 29/69/12 28/67/12
f 18/41/12 20/46/12 30/72/12 29/69/12
f 20/46/12 2/3/12 22/53/12 30/72/12
f 14/33/7 12/28/6 46/109/6 47/111/7
f 36/86/1 35/82/10 55/130/10 56/133/1
f 8/18/4 6/13/3 43/101/3 44/104/4
f 2/4/1 20/47/10 50/118/10 42/99/1
f 16/38/8 14/34/7 47/112/7 48/114/8
f 10/23/5 8/18/4 44/104/4 45/106/5
f 4/9/2 2/4/1 42/99/1 41/97/2
f 18/42/9 16/38/8 48/114/8 49/116/9
f 12/28/6 10/24/5 45/107/5 46/109/6
f 6/14/3 4/9/2 41/97/2 43/102/3
f 20/48/10 18/42/9 49/116/9 50/119/10
f 32/76/12 31/73/12 41/98/12 42/100/12
f 31/73/12 33/78/12 43/103/12 41/98/12
f 33/78/12 34/80/12 44/105/12 43/103/12
f 34/80/12 35/83/12 45/108/12 44/105/12
f 35/83/12 36/85/12 46/110/12 45/108/12
f 36/85/12 37/87/12 47/113/12 46/110/12
f 37/87/12 38/90/12 48/115/12 47/113/12
f 38/90/12 39/92/12 49/117/12 48/115/12
f 39/92/12 40/94/12 50/120/12 49/117/12
f 40/94/12 32/76/12 42/100/12 50/120/12
f 33/79/8 31/74/7 51/121/7 53/126/8
f 40/95/5 39/93/4 59/140/4 60/143/5
f 37/88/2 36/86/1 56/133/1 57/135/2
f 34/81/9 33/79/8 53/126/8 54/128/9
f 32/77/6 40/96/5 60/144/5 52/125/6
f 38/91/3 37/89/2 57/136/2 58/138/3
f 35/84/10 34/81/9 54/128/9 55/131/10
f 31/75/7 32/77/6 52/125/6 51/122/7
f 39/93/4 38/91/3 58/138/3 59/140/4
