# Blender 3.4.1
# www.blender.org
mtllib P_eAsset_04.mtl
o P_eAsset_04
v 0.033453 -0.129769 -0.019316
v -0.000002 -0.129769 -0.038630
v -0.000002 -0.102658 -0.050167
v -0.000002 0.102658 -0.050167
v 0.043444 -0.102658 -0.025085
v 0.043444 0.102658 -0.025085
v 0.043444 -0.102658 0.025082
v 0.043444 0.102658 0.025082
v -0.000002 -0.102658 0.050163
v -0.000002 0.102658 0.050163
v -0.043447 -0.102658 0.025082
v -0.043447 0.102658 0.025082
v -0.043447 -0.102658 -0.025085
v -0.043447 0.102658 -0.025085
v 0.033453 0.129769 -0.019316
v -0.000002 0.129769 -0.038630
v 0.033453 -0.129769 0.019312
v 0.033453 0.129769 0.019312
v -0.000002 -0.129769 0.038626
v -0.000002 0.129769 0.038626
v -0.033457 -0.129769 0.019312
v -0.033457 0.129769 0.019312
v -0.033457 -0.129769 -0.019316
v -0.033457 0.129769 -0.019316
v -0.000002 0.129769 -0.063873
v -0.055317 0.129769 -0.031939
v -0.055317 -0.129769 -0.031939
v -0.000002 -0.129769 -0.063873
v -0.000002 -0.102658 -0.063873
v 0.055313 -0.102658 -0.031939
v -0.000002 0.129769 0.063869
v 0.055313 0.129769 0.031935
v 0.055313 -0.129769 0.031935
v -0.000002 -0.129769 0.063869
v 0.055313 0.102658 -0.031939
v -0.000002 0.102658 -0.063873
v -0.055317 0.129769 0.031935
v 0.055313 -0.102658 0.031935
v 0.055313 0.129769 -0.031939
v 0.055313 0.102658 0.031935
v -0.055317 -0.129769 0.031935
v -0.000002 -0.102658 0.063869
v 0.055313 -0.129769 -0.031939
v -0.000002 0.102658 0.063869
v -0.055317 -0.102658 0.031935
v -0.055317 0.102658 0.031935
v -0.055317 -0.102658 -0.031939
v -0.055317 0.102658 -0.031939
v -0.000002 0.122012 -0.038630
v -0.033457 0.122012 -0.019316
v -0.033457 -0.122012 -0.019316
v -0.000002 -0.122012 -0.038630
v -0.000002 0.122012 0.038626
v 0.033453 0.122012 0.019312
v 0.033453 -0.122012 0.019312
v -0.000002 -0.122012 0.038626
v -0.033457 0.122012 0.019312
v 0.033453 0.122012 -0.019316
v -0.033457 -0.122012 0.019312
v 0.033453 -0.122012 -0.019316
vn -0.0000 -1.0000 -0.0000
vn 0.5000 -0.0000 -0.8660
vn -0.0000 1.0000 -0.0000
vn 1.0000 -0.0000 -0.0000
vn 0.5000 -0.0000 0.8660
vn -0.5000 -0.0000 0.8660
vn -0.5000 -0.0000 -0.8660
vn -1.0000 -0.0000 -0.0000
vt 0.859913 0.109916
vt 0.909536 0.812202
vt 0.297666 0.783980
vt 0.780237 0.063919
vt 0.297666 0.737976
vt 0.123273 0.003799
vt 0.509165 0.348269
vt 0.123273 0.492776
vt 0.135536 0.533017
vt 0.003799 0.003799
vt 0.895052 0.315627
vt 0.405696 0.408003
vt 0.003799 0.492776
vt 0.895052 0.804603
vt 0.239005 0.592750
vt 0.775576 0.315627
vt 0.369830 0.003799
vt 0.405696 0.527480
vt 0.775576 0.804603
vt 0.369830 0.492776
vt 0.239005 0.712227
vt 0.250356 0.003799
vt 0.509165 0.587213
vt 0.250356 0.492776
vt 0.135536 0.771961
vt 0.190614 0.003799
vt 0.767977 0.315627
vt 0.612634 0.527480
vt 0.190614 0.492776
vt 0.767977 0.804603
vt 0.032067 0.712227
vt 0.648501 0.315627
vt 0.183015 0.003799
vt 0.612634 0.408003
vt 0.648501 0.804603
vt 0.183015 0.492776
vt 0.032067 0.592750
vt 0.429490 0.109916
vt 0.242903 0.812202
vt 0.279193 0.638378
vt 0.509165 0.063919
vt 0.279193 0.592374
vt 0.562842 0.773056
vt 0.859913 0.201911
vt 0.909536 0.904196
vt 0.429490 0.201911
vt 0.242903 0.904196
vt 0.544369 0.627454
vt 0.562842 0.819061
vt 0.780237 0.247908
vt 0.509165 0.247908
vt 0.544369 0.673458
vt 0.562842 0.911060
vt 0.700562 0.201911
vt 0.883465 0.812202
vt 0.588841 0.201911
vt 0.279193 0.791579
vt 0.544369 0.765458
vt 0.700562 0.109916
vt 0.297666 0.645976
vt 0.883465 0.904196
vt 0.588841 0.109916
vt 0.279193 0.500374
vt 0.279193 0.883573
vt 0.576337 0.779569
vt 0.509165 0.003799
vt 0.576337 0.855632
vt 0.648501 0.812202
vt 0.640902 0.079854
vt 0.785229 0.812202
vt 0.967216 0.543805
vt 0.648501 0.079854
vt 0.967216 0.467742
vt 0.780237 0.003799
vt 0.902651 0.467742
vt 0.509165 0.315627
vt 0.377428 0.391682
vt 0.902651 0.315627
vt 0.792828 0.964321
vt 0.305265 0.812214
vt 0.509165 0.308028
vt 0.170740 0.812202
vt 0.305265 0.964329
vt 0.377428 0.231973
vt 0.369830 0.728553
vt 0.857393 0.812202
vt 0.911974 0.231973
vt 0.369830 0.576438
vt 0.780237 0.308028
vt 0.640902 0.627454
vt 0.235305 0.964321
vt 0.267273 0.576429
vt 0.640902 0.779569
vt 0.135536 0.500374
vt 0.648501 0.964321
vt 0.305265 0.736151
vt 0.640902 0.231973
vt 0.305265 0.728553
vt 0.792828 0.812202
vt 0.377428 0.543801
vt 0.576337 0.627454
vt 0.170740 0.964321
vt 0.377428 0.079854
vt 0.267273 0.728548
vt 0.235305 0.812202
vt 0.369830 0.964329
vt 0.785229 0.964321
vt 0.369830 0.500374
vt 0.648501 0.231973
vt 0.305265 0.576438
vt 0.509165 0.619856
vt 0.967216 0.315627
vt 0.857393 0.964321
vt 0.911974 0.079854
vt 0.369830 0.812214
vt 0.135536 0.804603
vt 0.720664 0.964321
vt 0.305265 0.500374
vt 0.640902 0.543801
vt 0.713066 0.964321
vt 0.369830 0.736151
vt 0.003799 0.728548
vt 0.720664 0.812202
vt 0.902651 0.543805
vt 0.640902 0.391682
vt 0.640902 0.855632
vt 0.713066 0.812202
vt 0.003799 0.576429
vt 0.377428 0.673459
vt 0.297666 0.592374
vt 0.457099 0.627454
vt 0.297666 0.500374
vt 0.297666 0.883573
vt 0.003799 0.950206
vt 0.279193 0.645976
vt 0.864991 0.904196
vt 0.003799 0.858206
vt 0.279193 0.737976
vt 0.536771 0.765448
vt 0.562842 0.673458
vt 0.457099 0.811453
vt 0.261377 0.904196
vt 0.562842 0.627454
vt 0.544369 0.773056
vt 0.163141 0.858196
vt 0.891063 0.904196
vt 0.544369 0.819061
vt 0.163141 0.950196
vt 0.536771 0.673449
vt 0.297666 0.791579
vt 0.562842 0.765458
vt 0.377428 0.765458
vt 0.261377 0.812202
vt 0.297666 0.638378
vt 0.544369 0.911060
vt 0.083470 0.996201
vt 0.864991 0.812202
vt 0.083470 0.812202
vt 0.891063 0.812202
vt 0.279193 0.783980
s 1
g P_eAsset_04_Schraube
usemtl Schraube
f 14/37/1 12/31/1 46/122/1 48/128/1
f 8/21/1 6/15/1 35/92/1 40/104/1
f 3/6/2 4/8/2 6/13/2 5/10/2
f 15/38/3 39/103/3 25/66/3 16/41/3
f 18/46/3 20/51/3 31/81/3 32/84/3
f 5/11/4 6/14/4 8/19/4 7/16/4
f 37/97/3 22/56/3 24/62/3 26/69/3
f 7/17/5 8/20/5 10/24/5 9/22/5
f 3/7/3 5/12/3 30/77/3 29/76/3
f 19/49/2 21/53/2 59/155/2 56/147/2
f 9/22/6 10/24/6 12/29/6 11/26/6
f 11/28/3 13/34/3 47/125/3 45/119/3
f 17/43/7 19/49/7 56/147/7 55/144/7
f 11/27/8 12/30/8 14/35/8 13/32/8
f 5/12/3 7/18/3 38/100/3 30/77/3
f 10/25/1 8/21/1 40/104/1 44/116/1
f 13/33/7 14/36/7 4/8/7 3/6/7
f 28/74/1 2/4/1 23/59/1 27/72/1
f 45/117/8 47/123/8 27/70/8 41/107/8
f 29/75/2 30/78/2 43/112/2 28/73/2
f 38/98/5 42/110/5 34/88/5 33/85/5
f 36/93/7 48/126/7 26/67/7 25/65/7
f 30/79/4 38/99/4 33/86/4 43/113/4
f 35/90/2 36/93/2 25/65/2 39/101/2
f 48/127/8 46/120/8 37/95/8 26/68/8
f 40/105/4 35/91/4 39/102/4 32/82/4
f 44/115/5 40/106/5 32/83/5 31/80/5
f 42/110/6 45/118/6 41/108/6 34/88/6
f 47/124/7 29/75/7 28/73/7 27/71/7
f 46/121/6 44/115/6 31/80/6 37/96/6
f 33/87/1 17/44/1 1/1/1 43/114/1
f 9/23/3 11/28/3 45/119/3 42/111/3
f 6/15/1 4/9/1 36/94/1 35/92/1
f 13/34/3 3/7/3 29/76/3 47/125/3
f 12/31/1 10/25/1 44/116/1 46/122/1
f 7/18/3 9/23/3 42/111/3 38/100/3
f 4/9/1 14/37/1 48/128/1 36/94/1
f 19/50/1 34/89/1 41/109/1 21/54/1
f 31/81/3 20/51/3 22/56/3 37/97/3
f 43/114/1 1/1/1 2/4/1 28/74/1
f 26/69/3 24/62/3 16/41/3 25/66/3
f 19/50/1 17/44/1 33/87/1 34/89/1
f 18/46/3 32/84/3 39/103/3 15/38/3
f 27/72/1 23/59/1 21/54/1 41/109/1
f 52/137/1 60/158/1 55/145/1 56/148/1 59/156/1 51/134/1
f 58/152/3 49/129/3 50/131/3 57/149/3 53/139/3 54/141/3
f 16/42/5 24/63/5 50/132/5 49/130/5
f 1/2/8 17/45/8 55/146/8 60/159/8
f 24/64/4 22/57/4 57/150/4 50/133/4
f 2/5/6 1/3/6 60/160/6 52/138/6
f 23/60/5 2/5/5 52/138/5 51/135/5
f 22/58/2 20/52/2 53/140/2 57/151/2
f 18/47/8 15/39/8 58/153/8 54/142/8
f 20/52/7 18/48/7 54/143/7 53/140/7
f 15/40/6 16/42/6 49/130/6 58/154/6
f 21/55/4 23/61/4 51/136/4 59/157/4
