# Blender 3.4.1
# www.blender.org
mtllib P_eAsset_03.mtl
o P_eAsset_03
v -0.021355 0.031284 0.004608
v -0.052006 0.043843 0.058405
v -0.044527 0.063848 0.086212
v -0.052006 0.065262 0.083115
v -0.044527 0.124871 0.086212
v -0.052006 0.123457 0.083115
v -0.044527 0.147974 0.059561
v -0.052006 0.144876 0.058405
v -0.044527 0.063848 -0.172913
v -0.052006 0.065262 -0.169815
v -0.021355 0.009461 0.004608
v -0.052006 0.043843 -0.145105
v -0.044527 0.147974 -0.146261
v -0.052006 0.144876 -0.145105
v -0.044527 0.124871 -0.172913
v -0.052006 0.123457 -0.169815
v 0.044527 0.063848 0.086212
v 0.052006 0.065262 0.083115
v 0.004608 0.031284 -0.021351
v 0.052006 0.043843 0.058405
v 0.044527 0.147974 0.059561
v 0.052006 0.144876 0.058405
v 0.044527 0.124871 0.086212
v 0.052006 0.123457 0.083115
v 0.004608 0.009461 -0.021351
v 0.052006 0.043843 -0.145105
v 0.044527 0.063848 -0.172913
v 0.052006 0.065262 -0.169815
v 0.044527 0.124871 -0.172913
v 0.052006 0.123457 -0.169815
v 0.044527 0.147974 -0.146261
v 0.052006 0.144876 -0.145105
v -0.044527 0.040745 -0.146261
v -0.044527 0.040745 0.059561
v 0.044527 0.040745 0.059561
v 0.044527 0.040745 -0.146261
v 0.016449 0.031284 -0.016445
v 0.016449 0.009461 -0.016445
v 0.021355 0.009461 -0.004604
v 0.021355 0.031284 -0.004604
v -0.027493 0.040745 0.005829
v -0.005829 0.040745 0.027493
v -0.037655 0.040745 0.046625
v -0.021147 0.040745 0.021147
v -0.005829 0.040745 -0.027489
v -0.027493 0.040745 -0.005825
v -0.030567 0.040745 -0.048933
v -0.021147 0.040745 -0.021143
v 0.005829 0.040745 0.027493
v 0.027493 0.040745 0.005829
v 0.037655 0.040745 0.046625
v 0.021147 0.040745 0.021147
v 0.027493 0.040745 -0.005825
v 0.005829 0.040745 -0.027489
v 0.030567 0.040745 -0.048933
v 0.021147 0.040745 -0.021143
v -0.027493 -0.000000 -0.005825
v -0.005829 -0.000000 -0.027489
v -0.021147 -0.000000 -0.021143
v -0.005829 -0.000000 0.027493
v -0.027493 -0.000000 0.005829
v -0.021147 -0.000000 0.021147
v 0.027493 -0.000000 0.005829
v 0.005829 -0.000000 0.027493
v 0.021147 -0.000000 0.021147
v 0.005829 -0.000000 -0.027489
v 0.027493 -0.000000 -0.005825
v 0.021147 -0.000000 -0.021143
v -0.021355 0.031284 -0.004604
v -0.021355 0.009461 -0.004604
v -0.016449 0.009461 -0.016445
v -0.016449 0.031284 -0.016445
v -0.021147 0.031284 -0.021143
v -0.021147 0.009461 -0.021143
v -0.005829 0.031284 -0.027489
v -0.005829 0.009461 -0.027489
v 0.005829 0.031284 0.027493
v 0.005829 0.009461 0.027493
v 0.021147 0.009461 0.021147
v 0.021147 0.031284 0.021147
v 0.027493 0.009461 0.005829
v 0.027493 0.031284 0.005829
v -0.005829 0.009461 0.027493
v -0.005829 0.031284 0.027493
v -0.021147 0.031284 0.021147
v -0.021147 0.009461 0.021147
v -0.027493 0.009461 0.005829
v -0.027493 0.031284 0.005829
v -0.027493 0.009461 -0.005825
v -0.027493 0.031284 -0.005825
v 0.027493 0.031284 -0.005825
v 0.027493 0.009461 -0.005825
v 0.021147 0.009461 -0.021143
v 0.021147 0.031284 -0.021143
v 0.005829 0.009461 -0.027489
v 0.005829 0.031284 -0.027489
v -0.004608 0.031284 -0.021351
v -0.004608 0.009461 -0.021351
v 0.016449 0.009461 0.016449
v 0.016449 0.031284 0.016449
v 0.004608 0.031284 0.021355
v 0.004608 0.009461 0.021355
v 0.021355 0.009461 0.004608
v 0.021355 0.031284 0.004608
v -0.016449 0.031284 0.016449
v -0.016449 0.009461 0.016449
v -0.004608 0.009461 0.021355
v -0.004608 0.031284 0.021355
v 0.055107 0.068677 -0.162333
v 0.055107 0.051324 -0.142315
v -0.055107 0.051324 -0.142315
v -0.055107 0.068677 -0.162333
v -0.055107 0.120042 -0.162333
v -0.055107 0.137395 -0.142315
v 0.055107 0.137395 -0.142315
v 0.055107 0.120042 -0.162333
v -0.055107 0.068677 0.075632
v -0.055107 0.051324 0.055614
v 0.055107 0.051324 0.055614
v 0.055107 0.068677 0.075632
v 0.055107 0.120042 0.075632
v 0.055107 0.137395 0.055614
v -0.055107 0.137395 0.055614
v -0.055107 0.120042 0.075632
v 0.029915 0.073904 -0.150883
v 0.029915 0.062774 -0.138042
v -0.029915 0.062774 -0.138042
v -0.029915 0.073904 -0.150883
v -0.029915 0.114814 -0.150883
v -0.029915 0.125945 -0.138042
v 0.029915 0.125945 -0.138042
v 0.029915 0.114814 -0.150883
v -0.029915 0.073904 0.064182
v -0.029915 0.062774 0.051342
v 0.029915 0.062774 0.051342
v 0.029915 0.073904 0.064182
v 0.029915 0.114814 0.064182
v 0.029915 0.125945 0.051342
v -0.029915 0.125945 0.051342
v -0.029915 0.114814 0.064182
v -0.050369 0.062774 0.051342
v -0.055107 0.058036 0.053110
v -0.055107 0.071742 0.068920
v -0.050369 0.073904 0.064182
v -0.050369 0.114814 0.064182
v -0.055107 0.116977 0.068920
v -0.055107 0.130683 0.053110
v -0.050369 0.125945 0.051342
v -0.050369 0.073904 -0.150883
v -0.055107 0.071742 -0.155621
v -0.055107 0.058036 -0.139811
v -0.050369 0.062774 -0.138042
v -0.050369 0.125945 -0.138042
v -0.055107 0.130683 -0.139811
v -0.055107 0.116977 -0.155621
v -0.050369 0.114814 -0.150883
v 0.050369 0.073904 0.064182
v 0.055107 0.071742 0.068920
v 0.055107 0.058036 0.053110
v 0.050369 0.062774 0.051342
v 0.050369 0.125945 0.051342
v 0.055107 0.130683 0.053110
v 0.055107 0.116977 0.068920
v 0.050369 0.114814 0.064182
v 0.050369 0.062774 -0.138042
v 0.055107 0.058036 -0.139811
v 0.055107 0.071742 -0.155621
v 0.050369 0.073904 -0.150883
v 0.050369 0.114814 -0.150883
v 0.055107 0.116977 -0.155621
v 0.055107 0.130683 -0.139811
v 0.050369 0.125945 -0.138042
vn 0.1979 0.9184 0.3426
vn -0.1979 0.9184 0.3426
vn -0.1837 0.7428 0.6439
vn 0.1837 0.7428 0.6439
vn 0.1979 -0.9184 -0.3426
vn -0.1979 -0.9184 -0.3426
vn -0.1837 -0.7428 -0.6439
vn 0.1837 -0.7428 -0.6439
vn 0.1837 -0.0000 0.9830
vn -0.1837 -0.0000 0.9830
vn -0.1979 0.9184 -0.3426
vn 0.1979 0.9184 -0.3426
vn 0.1837 0.7428 -0.6439
vn -0.1837 0.7428 -0.6439
vn -0.1837 -0.0000 -0.9830
vn 0.1837 -0.0000 -0.9830
vn -0.0000 -0.9369 -0.3496
vn -0.0000 -0.9369 0.3496
vn 0.1951 -0.0000 0.9808
vn -0.1951 -0.0000 0.9808
vn -0.0000 0.9369 0.3496
vn -0.0000 0.7556 0.6550
vn 0.9742 -0.0937 -0.2053
vn 0.9746 -0.2098 -0.0783
vn 0.9322 -0.3392 -0.1265
vn 0.9357 -0.1465 -0.3210
vn 0.3827 -0.6981 -0.6051
vn 0.4044 -0.8569 -0.3197
vn -0.9746 -0.2098 -0.0783
vn -0.9742 -0.0937 -0.2053
vn -0.9357 -0.1465 -0.3210
vn -0.9322 -0.3392 -0.1265
vn -0.4044 -0.8569 -0.3197
vn -0.3827 -0.6981 -0.6051
vn -0.9742 0.0937 -0.2053
vn -0.9746 0.2098 -0.0783
vn -0.9322 0.3392 -0.1265
vn -0.9357 0.1465 -0.3210
vn -0.3827 0.6981 -0.6051
vn -0.4044 0.8569 -0.3197
vn 0.9746 0.2098 -0.0783
vn 0.9742 0.0937 -0.2053
vn 0.9357 0.1465 -0.3210
vn 0.9322 0.3392 -0.1265
vn 0.4044 0.8569 -0.3197
vn 0.3827 0.6981 -0.6051
vn -0.9742 -0.0937 0.2053
vn -0.9746 -0.2098 0.0783
vn -0.9322 -0.3392 0.1265
vn -0.9357 -0.1465 0.3210
vn -0.3827 -0.6981 0.6051
vn -0.4044 -0.8569 0.3197
vn -0.1979 -0.9184 0.3426
vn -0.1837 -0.7428 0.6439
vn 0.9746 -0.2098 0.0783
vn 0.9742 -0.0937 0.2053
vn 0.9357 -0.1465 0.3210
vn 0.9322 -0.3392 0.1265
vn 0.4044 -0.8569 0.3197
vn 0.3827 -0.6981 0.6051
vn 0.1837 -0.7428 0.6439
vn 0.1979 -0.9184 0.3426
vn 0.9742 0.0937 0.2053
vn 0.9746 0.2098 0.0783
vn 0.9322 0.3392 0.1265
vn 0.9357 0.1465 0.3210
vn 0.3827 0.6981 0.6051
vn 0.4044 0.8569 0.3197
vn -0.9746 0.2098 0.0783
vn -0.9742 0.0937 0.2053
vn -0.9357 0.1465 0.3210
vn -0.9322 0.3392 0.1265
vn -0.4044 0.8569 0.3197
vn -0.3827 0.6981 0.6051
vn -0.3827 -0.0000 0.9239
vn -0.3827 -0.0000 -0.9239
vn 0.3827 -0.0000 0.9239
vn 0.3827 -0.0000 -0.9239
vn 0.9808 -0.0000 0.1951
vn 0.9239 -0.0000 0.3827
vn -0.0000 -1.0000 -0.0000
vn 0.9808 -0.0000 -0.1951
vn -0.9808 -0.0000 0.1951
vn -0.9808 -0.0000 -0.1951
vn -0.9239 -0.0000 0.3827
vn -0.1951 -0.0000 -0.9808
vn 0.1951 -0.0000 -0.9808
vn 0.9239 -0.0000 -0.3827
vn -0.9238 -0.0000 -0.3828
vn -0.9239 -0.0000 -0.3827
vn -0.0000 1.0000 -0.0000
vn 0.9238 -0.0000 -0.3828
vn 0.3828 -0.0000 -0.9238
vn -0.3828 -0.0000 -0.9238
vn 0.3828 -0.0000 0.9238
vn 0.9238 -0.0000 0.3828
vn -0.3828 -0.0000 0.9238
vn -0.9238 -0.0000 0.3828
vn -0.0000 -0.0000 1.0000
vn -0.0000 0.7556 -0.6550
vn -0.0000 0.9369 -0.3496
vn -0.0000 -0.0000 -1.0000
vn -0.0000 -0.7556 -0.6550
vn -1.0000 -0.0000 -0.0000
vn 1.0000 -0.0000 -0.0000
vn -0.0000 -0.7556 0.6550
vn 0.7397 0.2795 0.6121
vn 0.7297 0.6406 0.2390
vn -0.7297 0.6406 0.2390
vn -0.7397 0.2795 0.6121
vn -0.7397 -0.2795 0.6121
vn -0.7297 -0.6406 0.2390
vn 0.7297 -0.6406 0.2390
vn 0.7397 -0.2795 0.6121
vn -0.7397 0.2795 -0.6121
vn -0.7297 0.6406 -0.2390
vn 0.7297 0.6406 -0.2390
vn 0.7397 0.2795 -0.6121
vn 0.7397 -0.2795 -0.6121
vn 0.7297 -0.6406 -0.2390
vn -0.7297 -0.6406 -0.2390
vn -0.7397 -0.2795 -0.6121
vt 0.330378 0.848245
vt 0.344025 0.659531
vt 0.457321 0.055938
vt 0.003979 0.490386
vt 0.140256 0.759802
vt 0.019705 0.548858
vt 0.003979 0.542344
vt 0.143229 0.775528
vt 0.502359 0.003979
vt 0.433636 0.548858
vt 0.268574 0.759802
vt 0.449362 0.542344
vt 0.265600 0.775528
vt 0.624730 0.003979
vt 0.433636 0.492816
vt 0.449362 0.490386
vt 0.669769 0.055938
vt 0.019705 0.003979
vt 0.003979 0.572542
vt 0.003979 0.010493
vt 0.006953 0.556816
vt 0.502359 0.535831
vt 0.376265 0.848245
vt 0.344025 0.693302
vt 0.457321 0.483872
vt 0.003979 0.062451
vt 0.433636 0.060021
vt 0.449362 0.062451
vt 0.669769 0.483872
vt 0.433636 0.003979
vt 0.132297 0.572542
vt 0.449362 0.010493
vt 0.129324 0.556816
vt 0.624730 0.535831
vt 0.140256 0.572542
vt 0.206965 0.548858
vt 0.222691 0.542344
vt 0.722766 0.535831
vt 0.143229 0.556816
vt 0.400104 0.769681
vt 0.289439 0.604937
vt 0.677728 0.483872
vt 0.222691 0.490386
vt 0.246376 0.492816
vt 0.890176 0.483872
vt 0.230650 0.490386
vt 0.246376 0.548858
vt 0.268574 0.572542
vt 0.230650 0.542344
vt 0.845137 0.535831
vt 0.265600 0.556816
vt 0.445991 0.769681
vt 0.289439 0.747896
vt 0.677728 0.055938
vt 0.222691 0.062451
vt 0.206965 0.003979
vt 0.003979 0.759802
vt 0.222691 0.010493
vt 0.722766 0.003979
vt 0.006953 0.775528
vt 0.246376 0.003979
vt 0.132297 0.759802
vt 0.230650 0.010493
vt 0.845137 0.003979
vt 0.129324 0.775528
vt 0.246376 0.060021
vt 0.890176 0.055938
vt 0.230650 0.062451
vt 0.019705 0.060021
vt 0.019705 0.492816
vt 0.206965 0.492816
vt 0.206965 0.060021
vt 0.400104 0.891086
vt 0.400104 0.744782
vt 0.299754 0.580038
vt 0.445991 0.891086
vt 0.445991 0.744782
vt 0.299754 0.772794
vt 0.445991 0.866188
vt 0.324653 0.783110
vt 0.400104 0.866188
vt 0.324653 0.569723
vt 0.055525 0.379831
vt 0.188483 0.943282
vt 0.101079 0.425384
vt 0.860773 0.769784
vt 0.034156 0.465615
vt 0.068869 0.412041
vt 0.188483 0.975492
vt 0.860773 0.737574
vt 0.101079 0.309772
vt 0.860773 0.891190
vt 0.055525 0.355325
vt 0.188483 0.918776
vt 0.049060 0.264679
vt 0.068869 0.323115
vt 0.860773 0.923400
vt 0.188483 0.886566
vt 0.125592 0.425384
vt 0.860773 0.794297
vt 0.274671 0.913321
vt 0.171146 0.379831
vt 0.192515 0.465615
vt 0.274671 0.881111
vt 0.157802 0.412041
vt 0.860773 0.826507
vt 0.171146 0.355325
vt 0.274671 0.937826
vt 0.125592 0.309772
vt 0.860773 0.866676
vt 0.177611 0.264679
vt 0.157802 0.323115
vt 0.860773 0.834466
vt 0.274671 0.970036
vt 0.049533 0.899108
vt 0.376265 0.913313
vt 0.003979 0.853554
vt 0.880668 0.600513
vt 0.017323 0.885764
vt 0.376265 0.881103
vt 0.880668 0.632723
vt 0.119592 0.853554
vt 0.880668 0.672892
vt 0.074038 0.899108
vt 0.376265 0.937818
vt 0.106248 0.885764
vt 0.376265 0.970028
vt 0.880668 0.640682
vt 0.074038 0.783487
vt 0.322419 0.913321
vt 0.119592 0.829041
vt 0.880668 0.697405
vt 0.106248 0.796831
vt 0.322419 0.881111
vt 0.880668 0.729615
vt 0.003979 0.829041
vt 0.880668 0.576000
vt 0.049533 0.783487
vt 0.322419 0.937826
vt 0.017323 0.796831
vt 0.880668 0.543790
vt 0.322419 0.970036
vt 0.330378 0.828874
vt 0.324653 0.659531
vt 0.324653 0.693302
vt 0.376265 0.828874
vt 0.376265 0.803975
vt 0.445991 0.813959
vt 0.299754 0.703618
vt 0.330378 0.803975
vt 0.299754 0.649215
vt 0.400104 0.813959
vt 0.880668 0.923400
vt 0.289876 0.659093
vt 0.208378 0.886566
vt 0.356370 0.881103
vt 0.860773 0.632723
vt 0.289876 0.693739
vt 0.880668 0.891190
vt 0.276532 0.626883
vt 0.860773 0.600513
vt 0.276532 0.725949
vt 0.880668 0.794297
vt 0.392145 0.602370
vt 0.860773 0.697405
vt 0.392145 0.750463
vt 0.302524 0.881111
vt 0.860773 0.729615
vt 0.378801 0.782673
vt 0.294566 0.881111
vt 0.880668 0.826507
vt 0.378801 0.570160
vt 0.302524 0.913321
vt 0.346591 0.796016
vt 0.294566 0.913321
vt 0.346591 0.556816
vt 0.860773 0.672892
vt 0.392145 0.725949
vt 0.880668 0.769784
vt 0.392145 0.626883
vt 0.208378 0.975492
vt 0.880668 0.737574
vt 0.378801 0.659093
vt 0.356370 0.970028
vt 0.860773 0.640682
vt 0.378801 0.693739
vt 0.356370 0.937818
vt 0.346591 0.680396
vt 0.208378 0.943282
vt 0.346591 0.672437
vt 0.356370 0.913313
vt 0.322086 0.680396
vt 0.208378 0.918776
vt 0.322086 0.672437
vt 0.294566 0.937826
vt 0.322086 0.556816
vt 0.302524 0.937826
vt 0.322086 0.796016
vt 0.860773 0.543790
vt 0.302524 0.970036
vt 0.289876 0.782673
vt 0.880668 0.834466
vt 0.294566 0.970036
vt 0.289876 0.570160
vt 0.860773 0.576000
vt 0.276532 0.750463
vt 0.880668 0.866676
vt 0.276532 0.602370
vt 0.400104 0.789060
vt 0.289439 0.624317
vt 0.445991 0.789060
vt 0.289439 0.728516
vt 0.322419 0.873152
vt 0.445991 0.821918
vt 0.368923 0.772794
vt 0.276532 0.873152
vt 0.400104 0.821918
vt 0.368923 0.580038
vt 0.379239 0.604937
vt 0.276532 0.848253
vt 0.322419 0.848253
vt 0.379239 0.747896
vt 0.445991 0.846816
vt 0.344025 0.783110
vt 0.400104 0.846816
vt 0.344025 0.569723
vt 0.276532 0.803975
vt 0.330378 0.873144
vt 0.368923 0.649215
vt 0.322419 0.803975
vt 0.376265 0.873144
vt 0.368923 0.703618
vt 0.379239 0.728516
vt 0.322419 0.828874
vt 0.276532 0.828874
vt 0.379239 0.624317
vt 0.729948 0.019713
vt 0.693459 0.061806
vt 0.473052 0.478005
vt 0.509541 0.520097
vt 0.617548 0.520097
vt 0.654037 0.478005
vt 0.874444 0.061806
vt 0.837955 0.019713
vt 0.509541 0.019713
vt 0.473052 0.061806
vt 0.693459 0.478005
vt 0.729948 0.520097
vt 0.837955 0.520097
vt 0.874444 0.478005
vt 0.654037 0.061806
vt 0.617548 0.019713
vt 0.951108 0.003979
vt 0.400104 0.650799
vt 0.621520 0.543790
vt 0.598114 0.570790
vt 0.951108 0.030979
vt 0.738908 0.570790
vt 0.457321 0.969021
vt 0.188483 0.874059
vt 0.738908 0.543790
vt 0.480726 0.996021
vt 0.188483 0.788035
vt 0.566750 0.996021
vt 0.951108 0.464169
vt 0.590156 0.969021
vt 0.951108 0.491169
vt 0.799841 0.570790
vt 0.730950 0.570790
vt 0.400104 0.736823
vt 0.799841 0.543790
vt 0.707544 0.543790
vt 0.480726 0.543790
vt 0.127551 0.788035
vt 0.738908 0.996021
vt 0.457321 0.570790
vt 0.738908 0.969021
vt 0.598114 0.969021
vt 0.951108 0.429210
vt 0.951108 0.456210
vt 0.443115 0.556816
vt 0.621520 0.996021
vt 0.443115 0.642841
vt 0.799841 0.996021
vt 0.707544 0.996021
vt 0.799841 0.969021
vt 0.730950 0.969021
vt 0.951108 0.889400
vt 0.590156 0.570790
vt 0.951108 0.916400
vt 0.566750 0.543790
vt 0.127551 0.874059
vt 0.497127 0.070790
vt 0.781919 0.969021
vt 0.487165 0.067072
vt 0.791882 0.972739
vt 0.515984 0.033827
vt 0.180524 0.783487
vt 0.520533 0.043790
vt 0.170562 0.788035
vt 0.781919 0.996021
vt 0.908097 0.916400
vt 0.606557 0.043790
vt 0.170562 0.874059
vt 0.611105 0.033827
vt 0.180524 0.878607
vt 0.639924 0.067072
vt 0.898135 0.893118
vt 0.629962 0.070790
vt 0.908097 0.889400
vt 0.781919 0.543790
vt 0.520533 0.496021
vt 0.231494 0.874059
vt 0.515984 0.505983
vt 0.241456 0.878607
vt 0.487165 0.472738
vt 0.791882 0.567072
vt 0.497127 0.469021
vt 0.781919 0.570790
vt 0.629962 0.469021
vt 0.908097 0.491169
vt 0.639924 0.472738
vt 0.898135 0.487451
vt 0.611105 0.505983
vt 0.241456 0.783487
vt 0.908097 0.464169
vt 0.606557 0.496021
vt 0.231494 0.788035
vt 0.908097 0.456210
vt 0.400104 0.556816
vt 0.740940 0.496021
vt 0.736392 0.505983
vt 0.707572 0.472738
vt 0.898135 0.432928
vt 0.717534 0.469021
vt 0.908097 0.429210
vt 0.850369 0.469021
vt 0.842851 0.969021
vt 0.860331 0.472739
vt 0.852814 0.972739
vt 0.831512 0.505983
vt 0.400104 0.642841
vt 0.842851 0.996021
vt 0.826964 0.496021
vt 0.717534 0.070790
vt 0.908097 0.030979
vt 0.707572 0.067072
vt 0.898135 0.027262
vt 0.736392 0.033827
vt 0.908097 0.003979
vt 0.443115 0.650799
vt 0.740940 0.043790
vt 0.443115 0.736823
vt 0.842851 0.543790
vt 0.826964 0.043790
vt 0.831512 0.033827
vt 0.860331 0.067072
vt 0.852814 0.567072
vt 0.850369 0.070790
vt 0.842851 0.570790
s 1
g P_eAsset_03_Rohr
usemtl Rohr
f 21/44/1 7/15/2 5/10/3 23/47/4
f 36/72/5 33/69/6 9/18/7 27/56/8
f 17/35/9 23/48/9 5/11/10 3/5/10
f 13/27/11 31/66/12 29/61/13 15/30/14
f 9/19/15 15/31/15 29/62/16 27/57/16
f 148/310/17 153/321/18 130/267/18 139/288/17
f 31/66/12 13/27/11 7/15/2 21/44/1
f 165/346/21 168/350/22 125/253/22 126/257/21
f 109/237/23 110/238/24 26/54/25 28/59/26
f 28/58/27 26/55/28 36/72/5 27/56/8
f 111/239/29 112/240/30 10/22/31 12/25/32
f 12/26/33 10/20/34 9/18/7 33/69/6
f 113/241/35 114/242/36 14/29/37 16/34/38
f 16/32/39 14/28/40 13/27/11 15/30/14
f 115/243/41 116/244/42 30/64/43 32/67/44
f 32/68/45 30/63/46 29/61/13 31/66/12
f 117/245/47 118/246/48 2/3/49 4/9/50
f 4/7/51 2/4/52 34/70/53 3/6/54
f 119/247/55 120/248/56 18/38/57 20/42/58
f 20/43/59 18/37/60 17/36/61 35/71/62
f 121/249/63 122/250/64 22/45/65 24/50/66
f 24/49/67 22/46/68 21/44/1 23/47/4
f 123/251/69 124/252/70 6/14/71 8/17/72
f 8/16/73 6/12/74 5/10/3 7/15/2
f 118/246/48 111/239/29 12/25/32 2/3/49
f 2/4/52 12/26/33 33/69/6 34/70/53
f 110/238/24 119/247/55 20/42/58 26/54/25
f 26/55/28 20/43/59 35/71/62 36/72/5
f 3/5/10 5/11/10 6/13/75 4/8/75
f 4/9/50 6/14/71 124/252/70 117/245/47
f 7/15/2 13/27/11 14/28/40 8/16/73
f 8/17/72 14/29/37 114/242/36 123/251/69
f 15/31/15 9/19/15 10/21/76 16/33/76
f 16/34/38 10/22/31 112/240/30 113/241/35
f 120/248/56 121/249/63 24/50/66 18/38/57
f 18/39/77 24/51/77 23/48/9 17/35/9
f 122/250/64 115/243/41 32/67/44 22/45/65
f 22/46/68 32/68/45 31/66/12 21/44/1
f 116/244/42 109/237/23 28/59/26 30/64/43
f 30/65/78 28/60/78 27/57/16 29/62/16
f 34/70/53 35/71/62 17/36/61 3/6/54
f 47/95/81 46/93/81 41/83/81 43/87/81 34/70/53 33/69/6
f 43/87/81 42/85/81 49/99/81 51/103/81 35/71/62 34/70/53
f 55/111/81 54/109/81 45/91/81 47/95/81 33/69/6 36/72/5
f 51/103/81 50/102/81 53/107/81 55/111/81 36/72/5 35/71/62
f 41/83/81 44/88/81 43/87/81
f 44/88/81 42/85/81 43/87/81
f 45/91/81 48/96/81 47/95/81
f 48/96/81 46/93/81 47/95/81
f 49/99/81 52/105/81 51/103/81
f 52/105/81 50/102/81 51/103/81
f 53/107/81 56/112/81 55/111/81
f 56/112/81 54/109/81 55/111/81
f 168/351/99 169/353/99 132/270/99 125/254/99
f 156/328/99 149/313/99 128/260/99 129/263/99
f 157/329/100 160/336/101 135/279/101 136/280/100
f 152/319/21 141/294/101 134/277/101 127/258/21
f 164/342/102 157/330/102 136/281/102 137/283/102
f 172/360/18 161/338/17 138/286/17 131/268/18
f 145/302/103 148/310/17 139/288/17 140/290/103
f 143/297/104 142/295/104 118/246/48 117/245/47
f 161/338/17 164/343/103 137/284/103 138/286/17
f 147/307/104 146/305/104 124/252/70 123/251/69
f 149/311/22 152/319/21 127/258/21 128/261/22
f 151/316/104 150/314/104 112/240/30 111/239/29
f 159/333/105 158/332/105 120/248/56 119/247/55
f 163/341/105 162/339/105 122/250/64 121/249/63
f 169/354/106 172/360/18 131/268/18 132/271/106
f 167/349/105 166/347/105 110/238/24 109/237/23
f 170/356/105 167/349/105 109/237/23 116/244/42
f 144/300/102 145/304/102 140/292/102 133/274/102
f 150/314/104 155/324/104 113/241/35 112/240/30
f 166/347/105 159/333/105 119/247/55 110/238/24
f 155/324/104 154/322/104 114/242/36 113/241/35
f 146/305/104 143/297/104 117/245/47 124/252/70
f 171/357/105 170/356/105 116/244/42 115/243/41
f 154/322/104 147/307/104 123/251/69 114/242/36
f 142/295/104 151/316/104 111/239/29 118/246/48
f 153/321/18 156/326/106 129/265/106 130/267/18
f 158/332/105 163/341/105 121/249/63 120/248/56
f 160/336/101 165/346/21 126/257/21 135/279/101
f 162/339/105 171/357/105 115/243/41 122/250/64
f 168/352/107 165/345/108 166/347/108 167/349/107
f 152/318/109 149/312/110 150/314/110 151/316/109
f 156/327/111 153/320/112 154/322/112 155/324/111
f 172/359/113 169/355/114 170/356/114 171/357/113
f 144/299/115 141/293/116 142/295/116 143/297/115
f 160/335/117 157/331/118 158/332/118 159/333/117
f 164/344/119 161/337/120 162/339/120 163/341/119
f 148/309/121 145/303/122 146/305/122 147/307/121
f 141/294/116 152/319/109 151/317/109 142/296/116
f 165/346/108 160/336/117 159/334/117 166/348/108
f 145/304/122 144/300/115 143/298/115 146/306/122
f 153/321/112 148/310/121 147/308/121 154/323/112
f 149/313/110 156/328/111 155/325/111 150/315/110
f 157/331/118 164/344/119 163/341/119 158/332/118
f 161/338/120 172/360/113 171/358/113 162/340/120
f 169/355/114 168/352/107 167/349/107 170/356/114
f 141/294/101 144/301/100 133/275/100 134/277/101
g P_eAsset_03_Verbindung
usemtl Verbindung
f 49/100/19 42/86/20 84/179/20 77/163/19
f 82/175/79 50/101/79 52/104/80 80/170/80
f 57/115/81 59/119/81 58/117/81 66/136/81 68/140/81 67/138/81 63/129/81 65/133/81 64/131/81 60/122/81 62/126/81 61/124/81
f 53/108/82 50/101/79 82/175/79 91/195/82
f 87/187/83 89/191/84 57/116/84 61/125/83
f 41/84/83 88/189/83 85/181/85 44/89/85
f 44/90/75 85/182/75 84/179/20 42/86/20
f 63/130/79 81/173/79 79/167/80 65/134/80
f 78/165/19 83/177/20 60/123/20 64/132/19
f 45/92/86 54/110/87 96/207/87 75/159/86
f 45/92/86 75/159/86 73/153/76 48/97/76
f 93/199/78 68/141/78 66/137/87 95/205/87
f 56/113/78 94/202/78 96/207/87 54/110/87
f 53/108/82 91/195/82 94/203/88 56/114/88
f 71/147/89 70/146/84 69/143/84 72/150/89
f 92/197/82 67/139/82 68/142/88 93/200/88
f 74/156/90 59/120/90 57/116/84 89/191/84
f 76/161/86 58/118/86 59/121/76 74/157/76
f 80/171/77 52/106/77 49/100/19 77/163/19
f 92/197/82 81/173/79 63/130/79 67/139/82
f 87/187/83 61/125/83 62/127/85 86/184/85
f 41/84/83 46/94/84 90/193/84 88/189/83
f 86/185/75 62/128/75 60/123/20 83/177/20
f 65/135/77 79/168/77 78/165/19 64/132/19
f 76/161/86 95/205/87 66/137/87 58/118/86
f 95/206/91 76/162/91 98/212/91 25/53/91
f 89/192/91 87/188/91 11/24/91 70/145/91
f 77/164/81 84/180/81 108/236/81 101/219/81
f 80/172/81 77/164/81 101/219/81 100/218/81
f 90/194/81 73/154/81 72/151/81 69/144/81
f 86/186/91 83/178/91 107/233/91 106/232/91
f 96/208/81 94/204/81 37/75/81 19/41/81
f 83/178/91 78/166/91 102/222/91 107/233/91
f 91/196/81 82/176/81 104/226/81 40/82/81
f 73/154/81 75/160/81 97/210/81 72/151/81
f 74/158/91 89/192/91 70/145/91 71/149/91
f 79/169/91 81/174/91 103/224/91 99/215/91
f 48/98/90 73/155/90 90/193/84 46/94/84
f 39/79/82 38/76/92 37/73/92 40/81/82
f 38/77/93 25/52/87 19/40/87 37/74/93
f 70/146/84 11/23/83 1/1/83 69/143/84
f 98/211/86 71/148/94 72/152/94 97/209/86
f 100/216/95 101/220/19 102/221/19 99/213/95
f 104/225/79 100/217/96 99/214/96 103/223/79
f 106/230/97 107/234/20 108/235/20 105/227/97
f 11/23/83 106/231/98 105/228/98 1/1/83
f 103/223/79 39/79/82 40/81/82 104/225/79
f 107/234/20 102/221/19 101/220/19 108/235/20
f 25/52/87 98/211/86 97/209/86 19/40/87
f 84/180/81 85/183/81 105/229/81 108/236/81
f 92/198/91 93/201/91 38/78/91 39/80/91
f 78/166/91 79/169/91 99/215/91 102/222/91
f 75/160/81 96/208/81 19/41/81 97/210/81
f 88/190/81 90/194/81 69/144/81 1/2/81
f 87/188/91 86/186/91 106/232/91 11/24/91
f 85/183/81 88/190/81 1/2/81 105/229/81
f 94/204/81 91/196/81 40/82/81 37/75/81
f 82/176/81 80/172/81 100/218/81 104/226/81
f 76/162/91 74/158/91 71/149/91 98/212/91
f 81/174/91 92/198/91 39/80/91 103/224/91
f 93/201/91 95/206/91 25/53/91 38/78/91
f 126/256/105 125/255/105 132/272/105 131/269/105 138/287/105 137/285/105 136/282/105 135/278/105
f 134/276/104 133/273/104 140/291/104 139/289/104 130/266/104 129/264/104 128/262/104 127/259/104
