# This file uses centimeters as units for non-parametric coordinates.

mtllib Rohr_medium.mtl
g default
v 7.482028 0.000000 -43.304482
v -7.482028 0.000000 -43.304482
v 7.329405 0.734888 -43.543262
v 7.405717 0.715199 -43.536865
v 7.461580 0.661407 -43.519385
v 7.482028 0.587927 -43.495509
v 7.329405 0.625133 -43.758666
v 7.405717 0.608385 -43.746498
v 7.461580 0.562627 -43.713255
v 7.482028 0.500120 -43.667840
v 7.329405 0.454186 -43.929614
v 7.405717 0.442017 -43.912866
v 7.461580 0.408772 -43.867110
v 7.482028 0.363358 -43.804602
v 7.329405 0.238780 -44.039370
v 7.405717 0.232382 -44.019680
v 7.461580 0.214904 -43.965891
v 7.482028 0.191029 -43.892410
v 7.329405 0.000000 -44.077188
v 7.405717 0.000000 -44.056487
v 7.461580 0.000000 -43.999925
v 7.482028 0.000000 -43.922664
v 7.329405 -0.238780 -44.039370
v 7.405717 -0.232382 -44.019679
v 7.461580 -0.214904 -43.965891
v 7.482028 -0.191029 -43.892409
v 7.329405 -0.454186 -43.929615
v 7.405717 -0.442017 -43.912866
v 7.461580 -0.408772 -43.867110
v 7.482028 -0.363358 -43.804602
v 7.329405 -0.625133 -43.758666
v 7.405717 -0.608384 -43.746498
v 7.461580 -0.562626 -43.713255
v 7.482028 -0.500120 -43.667841
v 7.329405 -0.734888 -43.543261
v 7.405717 -0.715199 -43.536865
v 7.461580 -0.661407 -43.519386
v 7.482028 -0.587926 -43.495510
v 7.329405 -0.772707 -43.304482
v 7.405717 -0.752004 -43.304482
v 7.461580 -0.695444 -43.304482
v 7.482028 -0.618182 -43.304482
v 7.329405 -0.734888 -43.065702
v 7.405717 -0.715199 -43.072099
v 7.461580 -0.661407 -43.089578
v 7.482028 -0.587926 -43.113454
v 7.329405 -0.625133 -42.850297
v 7.405717 -0.608384 -42.862465
v 7.461580 -0.562626 -42.895709
v 7.482028 -0.500120 -42.941123
v 7.329405 -0.454186 -42.679349
v 7.405717 -0.442017 -42.696098
v 7.461580 -0.408772 -42.741854
v 7.482028 -0.363358 -42.804361
v 7.329405 -0.238779 -42.569594
v 7.405717 -0.232382 -42.589284
v 7.461580 -0.214904 -42.643072
v 7.482028 -0.191029 -42.716554
v 7.329405 -0.000000 -42.531775
v 7.405717 -0.000000 -42.552477
v 7.461580 -0.000000 -42.609039
v 7.482028 -0.000000 -42.686300
v 7.329405 0.238779 -42.569594
v 7.405717 0.232382 -42.589284
v 7.461580 0.214904 -42.643072
v 7.482028 0.191029 -42.716554
v 7.329405 0.454185 -42.679349
v 7.405717 0.442017 -42.696098
v 7.461580 0.408772 -42.741854
v 7.482028 0.363358 -42.804361
v 7.329405 0.625133 -42.850297
v 7.405717 0.608384 -42.862465
v 7.461580 0.562626 -42.895709
v 7.482028 0.500120 -42.941123
v 7.329405 0.734888 -43.065702
v 7.405717 0.715198 -43.072099
v 7.461580 0.661407 -43.089578
v 7.482028 0.587926 -43.113454
v 7.329405 0.772706 -43.304482
v 7.405717 0.752004 -43.304482
v 7.461580 0.695444 -43.304482
v 7.482028 0.618182 -43.304482
v -7.329405 0.734888 -43.543261
v -7.405717 0.715199 -43.536865
v -7.461580 0.661407 -43.519386
v -7.482028 0.587927 -43.495510
v -7.329405 0.625133 -43.758666
v -7.405717 0.608385 -43.746498
v -7.461580 0.562627 -43.713255
v -7.482028 0.500120 -43.667841
v -7.329405 0.454186 -43.929615
v -7.405717 0.442017 -43.912866
v -7.461580 0.408772 -43.867110
v -7.482028 0.363358 -43.804602
v -7.329405 0.238780 -44.039370
v -7.405717 0.232382 -44.019680
v -7.461580 0.214904 -43.965891
v -7.482028 0.191029 -43.892410
v -7.329405 0.000000 -44.077188
v -7.405717 0.000000 -44.056487
v -7.461580 0.000000 -43.999925
v -7.482028 0.000000 -43.922664
v -7.329405 -0.238780 -44.039370
v -7.405717 -0.232382 -44.019680
v -7.461580 -0.214904 -43.965891
v -7.482028 -0.191029 -43.892410
v -7.329405 -0.454186 -43.929615
v -7.405717 -0.442017 -43.912866
v -7.461580 -0.408772 -43.867110
v -7.482028 -0.363358 -43.804602
v -7.329405 -0.625133 -43.758666
v -7.405717 -0.608384 -43.746498
v -7.461580 -0.562626 -43.713255
v -7.482028 -0.500120 -43.667841
v -7.329405 -0.734888 -43.543261
v -7.405717 -0.715199 -43.536865
v -7.461580 -0.661407 -43.519386
v -7.482028 -0.587926 -43.495510
v -7.329405 -0.772707 -43.304482
v -7.405717 -0.752004 -43.304482
v -7.461580 -0.695444 -43.304482
v -7.482028 -0.618182 -43.304482
v -7.329405 -0.734888 -43.065702
v -7.405717 -0.715199 -43.072099
v -7.461580 -0.661407 -43.089578
v -7.482028 -0.587926 -43.113454
v -7.329405 -0.625133 -42.850297
v -7.405717 -0.608384 -42.862465
v -7.461580 -0.562626 -42.895709
v -7.482028 -0.500120 -42.941123
v -7.329405 -0.454186 -42.679349
v -7.405717 -0.442017 -42.696098
v -7.461580 -0.408772 -42.741854
v -7.482028 -0.363358 -42.804361
v -7.329405 -0.238779 -42.569594
v -7.405717 -0.232382 -42.589284
v -7.461580 -0.214904 -42.643072
v -7.482028 -0.191029 -42.716554
v -7.329405 -0.000000 -42.531775
v -7.405717 -0.000000 -42.552477
v -7.461580 -0.000000 -42.609039
v -7.482028 -0.000000 -42.686300
v -7.329405 0.238779 -42.569594
v -7.405717 0.232382 -42.589284
v -7.461580 0.214904 -42.643072
v -7.482028 0.191029 -42.716554
v -7.329405 0.454185 -42.679349
v -7.405717 0.442017 -42.696098
v -7.461580 0.408772 -42.741854
v -7.482028 0.363358 -42.804361
v -7.329405 0.625133 -42.850297
v -7.405717 0.608384 -42.862465
v -7.461580 0.562626 -42.895709
v -7.482028 0.500120 -42.941123
v -7.329405 0.734888 -43.065702
v -7.405717 0.715198 -43.072099
v -7.461580 0.661407 -43.089578
v -7.482028 0.587926 -43.113454
v -7.329405 0.772706 -43.304482
v -7.405717 0.752004 -43.304482
v -7.461580 0.695444 -43.304482
v -7.482028 0.618182 -43.304482
vt 0.838894 0.339770
vt 0.885460 0.339770
vt 0.885460 0.667045
vt 0.838894 0.667045
vt 0.922416 0.339770
vt 0.922416 0.667045
vt 0.787274 0.339770
vt 0.787274 0.667045
vt 0.735655 0.339770
vt 0.735655 0.667045
vt 0.689088 0.339770
vt 0.689088 0.667045
vt 0.652132 0.339770
vt 0.652132 0.667045
vt 0.211090 0.339770
vt 0.257657 0.339770
vt 0.257657 0.667045
vt 0.211090 0.667045
vt 0.309277 0.339770
vt 0.309277 0.667045
vt 0.174135 0.339770
vt 0.174135 0.667045
vt 0.360896 0.339770
vt 0.360896 0.667045
vt 0.407463 0.339770
vt 0.407463 0.667045
vt 0.444418 0.339770
vt 0.444418 0.667045
vt 0.090334 0.060920
vt 0.127589 0.041938
vt 0.168886 0.169037
vt 0.122428 0.026053
vt 0.080517 0.047407
vt 0.168886 0.035397
vt 0.060769 0.090485
vt 0.168886 0.018695
vt 0.047256 0.080668
vt 0.118649 0.014424
vt 0.073330 0.037515
vt 0.210182 0.041938
vt 0.041787 0.127740
vt 0.168886 0.006468
vt 0.215344 0.026053
vt 0.025902 0.122578
vt 0.037365 0.073481
vt 0.117266 0.010168
vt 0.070700 0.033895
vt 0.247437 0.060920
vt 0.035246 0.169037
vt 0.168886 0.001992
vt 0.219123 0.014424
vt 0.257255 0.047408
vt 0.018544 0.169037
vt 0.014273 0.118800
vt 0.033744 0.070850
vt 0.277002 0.090486
vt 0.041787 0.210334
vt 0.220505 0.010168
vt 0.264441 0.037516
vt 0.290515 0.080668
vt 0.025902 0.215495
vt 0.006316 0.169037
vt 0.010017 0.117417
vt 0.295985 0.127740
vt 0.060769 0.247588
vt 0.267072 0.033895
vt 0.300407 0.073481
vt 0.311870 0.122578
vt 0.047256 0.257405
vt 0.014273 0.219273
vt 0.001841 0.169037
vt 0.302525 0.169037
vt 0.090334 0.277153
vt 0.304028 0.070850
vt 0.323498 0.118800
vt 0.319227 0.169037
vt 0.080517 0.290666
vt 0.037365 0.264592
vt 0.010017 0.220656
vt 0.295985 0.210334
vt 0.127589 0.296135
vt 0.327755 0.117417
vt 0.331455 0.169037
vt 0.311870 0.215495
vt 0.122428 0.312020
vt 0.073330 0.300558
vt 0.033744 0.267223
vt 0.277002 0.247588
vt 0.168886 0.302676
vt 0.335930 0.169037
vt 0.323498 0.219273
vt 0.290515 0.257405
vt 0.168886 0.319379
vt 0.118649 0.323649
vt 0.070700 0.304179
vt 0.247437 0.277153
vt 0.210182 0.296135
vt 0.327755 0.220656
vt 0.300407 0.264592
vt 0.257255 0.290666
vt 0.215344 0.312020
vt 0.168886 0.331606
vt 0.117266 0.327906
vt 0.304028 0.267223
vt 0.264441 0.300558
vt 0.219123 0.323649
vt 0.168886 0.336081
vt 0.267072 0.304179
vt 0.220505 0.327906
vt 0.636617 0.210333
vt 0.617635 0.247588
vt 0.509518 0.169037
vt 0.652502 0.215495
vt 0.631147 0.257406
vt 0.588069 0.277153
vt 0.643157 0.169037
vt 0.659860 0.169037
vt 0.664131 0.219274
vt 0.641039 0.264592
vt 0.597887 0.290666
vt 0.550815 0.296135
vt 0.636617 0.127740
vt 0.652502 0.122578
vt 0.672087 0.169037
vt 0.668387 0.220656
vt 0.644660 0.267223
vt 0.605074 0.300558
vt 0.555976 0.312021
vt 0.509518 0.302676
vt 0.617635 0.090485
vt 0.631147 0.080668
vt 0.664131 0.118800
vt 0.676563 0.169037
vt 0.607704 0.304179
vt 0.559755 0.323649
vt 0.509518 0.319378
vt 0.468221 0.296135
vt 0.588069 0.060920
vt 0.597887 0.047407
vt 0.641039 0.073481
vt 0.668387 0.117417
vt 0.561138 0.327906
vt 0.509518 0.331606
vt 0.463060 0.312021
vt 0.430967 0.277153
vt 0.550815 0.041938
vt 0.555976 0.026052
vt 0.605074 0.037516
vt 0.644660 0.070851
vt 0.509518 0.336081
vt 0.459281 0.323649
vt 0.421149 0.290666
vt 0.401401 0.247588
vt 0.509518 0.035397
vt 0.509518 0.018695
vt 0.559755 0.014424
vt 0.607704 0.033895
vt 0.457898 0.327906
vt 0.413962 0.300558
vt 0.387889 0.257406
vt 0.382419 0.210333
vt 0.468221 0.041938
vt 0.463060 0.026052
vt 0.509518 0.006467
vt 0.561138 0.010168
vt 0.411332 0.304179
vt 0.377997 0.264592
vt 0.366534 0.215495
vt 0.375879 0.169037
vt 0.430967 0.060920
vt 0.421149 0.047407
vt 0.459281 0.014424
vt 0.509518 0.001992
vt 0.374376 0.267223
vt 0.354906 0.219274
vt 0.359176 0.169037
vt 0.382419 0.127740
vt 0.401401 0.090485
vt 0.387889 0.080668
vt 0.413962 0.037516
vt 0.457898 0.010168
vt 0.350649 0.220656
vt 0.346949 0.169037
vt 0.366534 0.122578
vt 0.377997 0.073481
vt 0.411332 0.033895
vt 0.342473 0.169037
vt 0.354906 0.118800
vt 0.374376 0.070851
vt 0.350649 0.117417
vt 0.646462 0.667044
vt 0.599895 0.667044
vt 0.599895 0.339770
vt 0.646462 0.339770
vt 0.548276 0.667044
vt 0.548276 0.339770
vt 0.496656 0.667044
vt 0.496656 0.339770
vt 0.450089 0.667044
vt 0.450089 0.339770
vt 0.001841 0.670734
vt 0.048408 0.670734
vt 0.048408 0.998008
vt 0.001841 0.998008
vt 0.100028 0.670734
vt 0.100028 0.998008
vt 0.151647 0.670734
vt 0.151647 0.998008
vt 0.198214 0.670734
vt 0.198214 0.998008
vn 0.001257 0.951056 -0.309017
vn 0.001257 0.809016 -0.587785
vn -0.001257 0.809016 -0.587785
vn -0.001257 0.951056 -0.309017
vn 0.001257 0.587787 -0.809015
vn -0.001257 0.587787 -0.809015
vn 0.001257 0.309016 -0.951056
vn -0.001257 0.309016 -0.951056
vn 0.001257 0.000000 -0.999999
vn -0.001257 0.000000 -0.999999
vn 0.001257 -0.309016 -0.951056
vn -0.001257 -0.309016 -0.951056
vn 0.001257 -0.587788 -0.809014
vn -0.001257 -0.587788 -0.809014
vn 0.001257 -0.809016 -0.587785
vn -0.001257 -0.809016 -0.587785
vn 0.001257 -0.951056 -0.309017
vn -0.001257 -0.951056 -0.309017
vn 0.001257 -0.999999 0.000000
vn -0.001257 -0.999999 -0.000000
vn 0.001257 -0.951056 0.309018
vn -0.001257 -0.951056 0.309018
vn 0.001257 -0.809016 0.587785
vn -0.001257 -0.809016 0.587785
vn 0.001257 -0.587787 0.809015
vn -0.001257 -0.587787 0.809015
vn 0.001257 -0.309016 0.951056
vn -0.001257 -0.309016 0.951056
vn 0.001257 -0.000000 0.999999
vn -0.001257 -0.000000 0.999999
vn 0.001257 0.309016 0.951056
vn -0.001257 0.309016 0.951056
vn 0.001257 0.587787 0.809014
vn -0.001257 0.587787 0.809014
vn 0.001257 0.809016 0.587785
vn -0.001257 0.809016 0.587785
vn 0.001257 0.951056 0.309017
vn -0.001257 0.951056 0.309017
vn 0.001257 0.999999 0.000001
vn -0.001257 0.999999 0.000001
vn 0.997904 0.052358 -0.038041
vn 0.997904 0.061551 -0.019999
vn 1.000000 0.000000 -0.000000
vn 0.997904 0.038040 -0.052359
vn 0.997904 0.019999 -0.061551
vn 0.997904 -0.000000 -0.064717
vn 0.997904 -0.019999 -0.061551
vn 0.997904 -0.038041 -0.052359
vn 0.997904 -0.052358 -0.038041
vn 0.997904 -0.061551 -0.019999
vn 0.997904 -0.064719 -0.000000
vn 0.997904 -0.061551 0.019999
vn 0.997904 -0.052358 0.038041
vn 0.997904 -0.038041 0.052359
vn 0.997904 -0.019999 0.061551
vn 0.997904 0.000000 0.064717
vn 0.997904 0.019999 0.061551
vn 0.997904 0.038041 0.052359
vn 0.997904 0.052358 0.038041
vn 0.997904 0.061551 0.019999
vn 0.997904 0.064719 0.000000
vn -0.997904 0.061551 -0.019999
vn -0.997904 0.052358 -0.038041
vn -1.000000 0.000000 0.000000
vn -0.997904 0.038040 -0.052359
vn -0.997904 0.019999 -0.061551
vn -0.997904 0.000000 -0.064718
vn -0.997904 -0.019999 -0.061551
vn -0.997904 -0.038041 -0.052358
vn -0.997904 -0.052358 -0.038041
vn -0.997904 -0.061551 -0.019999
vn -0.997904 -0.064719 -0.000000
vn -0.997904 -0.061551 0.019999
vn -0.997904 -0.052358 0.038041
vn -0.997904 -0.038040 0.052359
vn -0.997904 -0.019999 0.061551
vn -0.997904 0.000000 0.064717
vn -0.997904 0.019999 0.061551
vn -0.997904 0.038041 0.052359
vn -0.997904 0.052358 0.038041
vn -0.997904 0.061551 0.019999
vn -0.997904 0.064719 0.000001
vn 0.848568 0.503191 -0.163495
vn 0.848567 0.428040 -0.310991
vn 0.261823 0.917880 -0.298237
vn 0.475885 0.711537 -0.516962
vn 0.711475 0.668318 -0.217150
vn 0.966717 0.150382 -0.206987
vn 0.475881 0.516964 -0.711537
vn 0.711465 0.413049 -0.568514
vn 0.848565 0.163496 -0.503196
vn 0.475885 0.271785 -0.836461
vn 0.848569 -0.000000 -0.529085
vn 0.261826 -0.000000 -0.965115
vn 0.711472 -0.000000 -0.702715
vn 0.848565 -0.163496 -0.503197
vn 0.475887 -0.271785 -0.836460
vn 0.966717 -0.150381 -0.206987
vn 0.475882 -0.516965 -0.711536
vn 0.711464 -0.413049 -0.568515
vn 0.848567 -0.428040 -0.310991
vn 0.475884 -0.711537 -0.516961
vn 0.848568 -0.503191 -0.163495
vn 0.261820 -0.917879 -0.298242
vn 0.711475 -0.668318 -0.217151
vn 0.848568 -0.529087 -0.000001
vn 0.261822 -0.965116 -0.000001
vn 0.711476 -0.702711 0.000000
vn 0.848569 -0.503191 0.163495
vn 0.261821 -0.917879 0.298241
vn 0.711475 -0.668318 0.217150
vn 0.848567 -0.428040 0.310991
vn 0.475884 -0.711537 0.516962
vn 0.966717 -0.150382 0.206987
vn 0.475882 -0.516964 0.711537
vn 0.711465 -0.413049 0.568514
vn 0.848565 -0.163496 0.503196
vn 0.475886 -0.271784 0.836460
vn 0.848569 0.000000 0.529085
vn 0.261826 -0.000000 0.965115
vn 0.711472 0.000000 0.702714
vn 0.848565 0.163496 0.503196
vn 0.475886 0.271784 0.836460
vn 0.966717 0.150382 0.206987
vn 0.475882 0.516965 0.711536
vn 0.711465 0.413049 0.568514
vn 0.848567 0.428040 0.310991
vn 0.475884 0.711537 0.516961
vn 0.848568 0.503191 0.163495
vn 0.261821 0.917879 0.298241
vn 0.711475 0.668318 0.217151
vn 0.848568 0.529086 0.000001
vn 0.261823 0.965116 0.000001
vn 0.711475 0.702711 -0.000000
vn -0.848568 0.503191 -0.163494
vn -0.848568 0.529087 0.000001
vn -0.261821 0.917880 -0.298239
vn -0.261823 0.965116 0.000002
vn -0.711475 0.668318 -0.217151
vn -0.711475 0.702711 -0.000001
vn -0.848568 0.428040 -0.310989
vn -0.475884 0.711537 -0.516961
vn -0.966717 0.150382 -0.206987
vn -0.475882 0.516965 -0.711536
vn -0.711467 0.413050 -0.568510
vn -0.848566 0.163496 -0.503195
vn -0.475887 0.271785 -0.836460
vn -0.848568 -0.000000 -0.529086
vn -0.711472 -0.000000 -0.702714
vn -0.261826 0.000000 -0.965115
vn -0.848565 -0.163496 -0.503196
vn -0.475886 -0.271784 -0.836460
vn -0.966718 -0.150382 -0.206984
vn -0.475882 -0.516965 -0.711536
vn -0.711466 -0.413050 -0.568512
vn -0.848568 -0.428040 -0.310989
vn -0.475885 -0.711538 -0.516960
vn -0.848569 -0.503191 -0.163495
vn -0.711476 -0.668317 -0.217150
vn -0.261820 -0.917879 -0.298241
vn -0.848568 -0.529086 -0.000000
vn -0.711476 -0.702710 0.000001
vn -0.261821 -0.965116 -0.000001
vn -0.848569 -0.503191 0.163495
vn -0.711475 -0.668318 0.217150
vn -0.261821 -0.917879 0.298241
vn -0.848568 -0.428040 0.310989
vn -0.475884 -0.711537 0.516961
vn -0.966717 -0.150382 0.206987
vn -0.475882 -0.516965 0.711536
vn -0.711467 -0.413051 0.568511
vn -0.848566 -0.163496 0.503195
vn -0.475886 -0.271785 0.836460
vn -0.848569 0.000000 0.529085
vn -0.711472 0.000000 0.702714
vn -0.261826 -0.000000 0.965115
vn -0.848565 0.163496 0.503196
vn -0.475886 0.271784 0.836460
vn -0.966717 0.150382 0.206987
vn -0.475882 0.516965 0.711536
vn -0.711466 0.413050 0.568512
vn -0.848568 0.428040 0.310989
vn -0.475885 0.711538 0.516960
vn -0.848568 0.503191 0.163495
vn -0.711475 0.668318 0.217150
vn -0.261821 0.917879 0.298241
s 1
g pCylinder2
usemtl initialShadingGroup
f 3/1/1 7/2/2 87/3/3 83/4/4
f 7/2/2 11/5/5 91/6/6 87/3/3
f 11/191/5 15/192/7 95/193/8 91/194/6
f 15/192/7 19/195/9 99/196/10 95/193/8
f 19/195/9 23/197/11 103/198/12 99/196/10
f 23/197/11 27/199/13 107/200/14 103/198/12
f 27/21/13 31/15/15 111/18/16 107/22/14
f 31/15/15 35/16/17 115/17/18 111/18/16
f 35/16/17 39/19/19 119/20/20 115/17/18
f 39/19/19 43/23/21 123/24/22 119/20/20
f 43/23/21 47/25/23 127/26/24 123/24/22
f 47/25/23 51/27/25 131/28/26 127/26/24
f 51/201/25 55/202/27 135/203/28 131/204/26
f 55/202/27 59/205/29 139/206/30 135/203/28
f 59/205/29 63/207/31 143/208/32 139/206/30
f 63/207/31 67/209/33 147/210/34 143/208/32
f 67/13/33 71/11/35 151/12/36 147/14/34
f 71/11/35 75/9/37 155/10/38 151/12/36
f 75/9/37 79/7/39 159/8/40 155/10/38
f 79/7/39 3/1/1 83/4/4 159/8/40
f 10/29/41 6/30/42 1/31/43
f 14/35/44 10/29/41 1/31/43
f 18/41/45 14/35/44 1/31/43
f 22/49/46 18/41/45 1/31/43
f 26/57/47 22/49/46 1/31/43
f 30/65/48 26/57/47 1/31/43
f 34/73/49 30/65/48 1/31/43
f 38/81/50 34/73/49 1/31/43
f 42/89/51 38/81/50 1/31/43
f 46/97/52 42/89/51 1/31/43
f 50/96/53 46/97/52 1/31/43
f 54/88/54 50/96/53 1/31/43
f 58/80/55 54/88/54 1/31/43
f 62/72/56 58/80/55 1/31/43
f 66/64/57 62/72/56 1/31/43
f 70/56/58 66/64/57 1/31/43
f 74/48/59 70/56/58 1/31/43
f 78/40/60 74/48/59 1/31/43
f 82/34/61 78/40/60 1/31/43
f 6/30/42 82/34/61 1/31/43
f 86/110/62 90/111/63 2/112/64
f 90/111/63 94/115/65 2/112/64
f 94/115/65 98/121/66 2/112/64
f 98/121/66 102/129/67 2/112/64
f 102/129/67 106/137/68 2/112/64
f 106/137/68 110/145/69 2/112/64
f 110/145/69 114/153/70 2/112/64
f 114/153/70 118/161/71 2/112/64
f 118/161/71 122/169/72 2/112/64
f 122/169/72 126/177/73 2/112/64
f 126/177/73 130/178/74 2/112/64
f 130/178/74 134/170/75 2/112/64
f 134/170/75 138/162/76 2/112/64
f 138/162/76 142/154/77 2/112/64
f 142/154/77 146/146/78 2/112/64
f 146/146/78 150/138/79 2/112/64
f 150/138/79 154/130/80 2/112/64
f 154/130/80 158/122/81 2/112/64
f 158/122/81 162/116/82 2/112/64
f 162/116/82 86/110/62 2/112/64
f 5/32/83 6/30/42 10/29/41 9/33/84
f 3/46/1 4/38/85 8/39/86 7/47/2
f 4/38/87 5/32/83 9/33/84 8/39/86
f 9/33/84 10/29/41 14/35/44 13/37/88
f 7/47/2 8/39/86 12/45/89 11/55/5
f 8/39/86 9/33/84 13/37/90 12/45/89
f 13/37/88 14/35/44 18/41/45 17/44/91
f 11/55/5 12/45/89 16/54/92 15/63/7
f 12/45/89 13/37/90 17/44/91 16/54/92
f 17/44/91 18/41/45 22/49/46 21/53/93
f 15/63/7 16/54/92 20/62/94 19/71/9
f 16/54/92 17/44/91 21/53/93 20/62/95
f 21/53/93 22/49/46 26/57/47 25/61/96
f 19/71/9 20/62/94 24/70/97 23/79/11
f 20/62/95 21/53/93 25/61/96 24/70/97
f 25/61/96 26/57/47 30/65/48 29/69/98
f 23/79/11 24/70/97 28/78/99 27/87/13
f 24/70/97 25/61/96 29/69/100 28/78/99
f 29/69/98 30/65/48 34/73/49 33/77/101
f 27/87/13 28/78/99 32/86/102 31/95/15
f 28/78/99 29/69/100 33/77/101 32/86/102
f 33/77/101 34/73/49 38/81/50 37/85/103
f 31/95/15 32/86/102 36/94/104 35/103/17
f 32/86/102 33/77/101 37/85/103 36/94/105
f 37/85/103 38/81/50 42/89/51 41/93/106
f 35/103/17 36/94/104 40/102/107 39/107/19
f 36/94/105 37/85/103 41/93/106 40/102/108
f 41/93/106 42/89/51 46/97/52 45/101/109
f 39/107/19 40/102/107 44/106/110 43/109/21
f 40/102/108 41/93/106 45/101/109 44/106/111
f 45/101/109 46/97/52 50/96/53 49/100/112
f 43/109/21 44/106/110 48/105/113 47/108/23
f 44/106/111 45/101/109 49/100/112 48/105/113
f 49/100/112 50/96/53 54/88/54 53/92/114
f 47/108/23 48/105/113 52/99/115 51/104/25
f 48/105/113 49/100/112 53/92/116 52/99/115
f 53/92/114 54/88/54 58/80/55 57/84/117
f 51/104/25 52/99/115 56/91/118 55/98/27
f 52/99/115 53/92/116 57/84/117 56/91/118
f 57/84/117 58/80/55 62/72/56 61/76/119
f 55/98/27 56/91/118 60/83/120 59/90/29
f 56/91/118 57/84/117 61/76/119 60/83/121
f 61/76/119 62/72/56 66/64/57 65/68/122
f 59/90/29 60/83/120 64/75/123 63/82/31
f 60/83/121 61/76/119 65/68/122 64/75/123
f 65/68/122 66/64/57 70/56/58 69/60/124
f 63/82/31 64/75/123 68/67/125 67/74/33
f 64/75/123 65/68/122 69/60/126 68/67/125
f 69/60/124 70/56/58 74/48/59 73/52/127
f 67/74/33 68/67/125 72/59/128 71/66/35
f 68/67/125 69/60/126 73/52/127 72/59/128
f 73/52/127 74/48/59 78/40/60 77/43/129
f 71/66/35 72/59/128 76/51/130 75/58/37
f 72/59/128 73/52/127 77/43/129 76/51/131
f 77/43/129 78/40/60 82/34/61 81/36/132
f 75/58/37 76/51/130 80/42/133 79/50/39
f 76/51/131 77/43/129 81/36/132 80/42/134
f 6/30/42 5/32/83 81/36/132 82/34/61
f 5/32/83 4/38/87 80/42/134 81/36/132
f 4/38/85 3/46/1 79/50/39 80/42/133
f 85/113/135 86/110/62 162/116/82 161/117/136
f 83/125/4 84/118/137 160/124/138 159/133/40
f 84/118/139 85/113/135 161/117/136 160/124/140
f 86/110/62 85/113/135 89/114/141 90/111/63
f 85/113/135 84/118/139 88/119/142 89/114/141
f 84/118/137 83/125/4 87/126/3 88/119/142
f 90/111/63 89/114/141 93/120/143 94/115/65
f 89/114/141 88/119/142 92/127/144 93/120/145
f 88/119/142 87/126/3 91/134/6 92/127/144
f 94/115/65 93/120/143 97/128/146 98/121/66
f 93/120/145 92/127/144 96/135/147 97/128/146
f 92/127/144 91/134/6 95/142/8 96/135/147
f 98/121/66 97/128/146 101/136/148 102/129/67
f 97/128/146 96/135/147 100/143/149 101/136/148
f 96/135/147 95/142/8 99/150/10 100/143/150
f 102/129/67 101/136/148 105/144/151 106/137/68
f 101/136/148 100/143/149 104/151/152 105/144/151
f 100/143/150 99/150/10 103/158/12 104/151/152
f 106/137/68 105/144/151 109/152/153 110/145/69
f 105/144/151 104/151/152 108/159/154 109/152/155
f 104/151/152 103/158/12 107/166/14 108/159/154
f 110/145/69 109/152/153 113/160/156 114/153/70
f 109/152/155 108/159/154 112/167/157 113/160/156
f 108/159/154 107/166/14 111/174/16 112/167/157
f 114/153/70 113/160/156 117/168/158 118/161/71
f 113/160/156 112/167/157 116/175/159 117/168/158
f 112/167/157 111/174/16 115/182/18 116/175/160
f 118/161/71 117/168/158 121/176/161 122/169/72
f 117/168/158 116/175/159 120/183/162 121/176/161
f 116/175/160 115/182/18 119/187/20 120/183/163
f 122/169/72 121/176/161 125/184/164 126/177/73
f 121/176/161 120/183/162 124/188/165 125/184/164
f 120/183/163 119/187/20 123/190/22 124/188/166
f 126/177/73 125/184/164 129/179/167 130/178/74
f 125/184/164 124/188/165 128/185/168 129/179/167
f 124/188/166 123/190/22 127/189/24 128/185/168
f 130/178/74 129/179/167 133/171/169 134/170/75
f 129/179/167 128/185/168 132/180/170 133/171/171
f 128/185/168 127/189/24 131/186/26 132/180/170
f 134/170/75 133/171/169 137/163/172 138/162/76
f 133/171/171 132/180/170 136/172/173 137/163/172
f 132/180/170 131/186/26 135/181/28 136/172/173
f 138/162/76 137/163/172 141/155/174 142/154/77
f 137/163/172 136/172/173 140/164/175 141/155/174
f 136/172/173 135/181/28 139/173/30 140/164/176
f 142/154/77 141/155/174 145/147/177 146/146/78
f 141/155/174 140/164/175 144/156/178 145/147/177
f 140/164/176 139/173/30 143/165/32 144/156/178
f 146/146/78 145/147/177 149/139/179 150/138/79
f 145/147/177 144/156/178 148/148/180 149/139/181
f 144/156/178 143/165/32 147/157/34 148/148/180
f 150/138/79 149/139/179 153/131/182 154/130/80
f 149/139/181 148/148/180 152/140/183 153/131/182
f 148/148/180 147/157/34 151/149/36 152/140/183
f 154/130/80 153/131/182 157/123/184 158/122/81
f 153/131/182 152/140/183 156/132/185 157/123/184
f 152/140/183 151/149/36 155/141/38 156/132/186
f 158/122/81 157/123/184 161/117/136 162/116/82
f 157/123/184 156/132/185 160/124/140 161/117/136
f 156/132/186 155/141/38 159/133/40 160/124/138
