# Blender 3.3.0
# www.blender.org
mtllib Kette_Broken_01_eckig.mtl
o Kette_Broken_01_eckig
v 1.123905 0.125000 1.050905
v 1.039364 0.181199 1.015887
v 0.808395 0.181199 0.920217
v 0.723854 0.125000 0.885199
v 0.723854 -0.125000 0.885199
v 0.808395 -0.181199 0.920217
v 1.039364 -0.181199 1.015887
v 1.123905 -0.125000 1.050905
v 1.123905 0.125000 -1.050905
v 1.039364 0.181199 -1.015887
v 0.808395 0.181199 -0.920216
v 0.723854 0.125000 -0.885198
v 0.723854 -0.125000 -0.885198
v 0.808395 -0.181199 -0.920216
v 1.039364 -0.181199 -1.015887
v 1.123905 -0.125000 -1.050905
v 0.465537 0.125000 -1.709273
v 0.430519 0.181199 -1.624732
v 0.334848 0.181199 -1.393763
v 0.299830 0.125000 -1.309222
v 0.299830 -0.125000 -1.309222
v 0.334848 -0.181199 -1.393763
v 0.430519 -0.181199 -1.624732
v 0.465537 -0.125000 -1.709273
v -0.465537 0.125000 -1.709273
v -0.430519 0.181199 -1.624732
v -0.334848 0.181199 -1.393763
v -0.299830 0.125000 -1.309222
v -0.299830 -0.125000 -1.309222
v -0.334848 -0.181199 -1.393763
v -0.430519 -0.181199 -1.624732
v -0.465537 -0.125000 -1.709273
v -1.123905 0.125000 -1.050905
v -1.039364 0.181199 -1.015887
v -0.808394 0.181199 -0.920216
v -0.723854 0.125000 -0.885198
v -0.723854 -0.125000 -0.885198
v -0.808394 -0.181199 -0.920216
v -1.039364 -0.181199 -1.015887
v -1.123905 -0.125000 -1.050905
v -1.123905 0.125000 1.050905
v -1.039365 0.181199 1.015887
v -0.808395 0.181199 0.920216
v -0.723854 0.125000 0.885198
v -0.723854 -0.125000 0.885198
v -0.808395 -0.181199 0.920216
v -1.039365 -0.181199 1.015887
v -1.123905 -0.125000 1.050905
v -0.465537 0.125000 1.709274
v -0.430519 0.181199 1.624733
v -0.334848 0.181199 1.393763
v -0.299830 0.125000 1.309222
v -0.299830 -0.125000 1.309222
v -0.334848 -0.181199 1.393763
v -0.430519 -0.181199 1.624733
v -0.465537 -0.125000 1.709274
v 0.465536 0.125000 1.709274
v 0.430518 0.181199 1.624733
v 0.334848 0.181199 1.393763
v 0.299830 0.125000 1.309222
v 0.299830 -0.125000 1.309222
v 0.334848 -0.181199 1.393763
v 0.430518 -0.181199 1.624733
v 0.465536 -0.125000 1.709274
v 1.135265 0.079110 1.055611
v 1.135265 -0.079110 1.055611
v 0.712493 -0.079110 0.880493
v 0.712493 0.079110 0.880493
v 1.135265 -0.079110 -1.055611
v 1.135265 0.079110 -1.055611
v 0.712494 0.079110 -0.880493
v 0.712494 -0.079110 -0.880493
v 0.470242 -0.079110 -1.720634
v 0.470242 0.079110 -1.720634
v 0.295125 0.079110 -1.297862
v 0.295125 -0.079110 -1.297862
v -0.470243 -0.079110 -1.720634
v -0.470243 0.079110 -1.720634
v -0.295125 0.079110 -1.297862
v -0.295125 -0.079110 -1.297862
v -1.135265 -0.079110 -1.055611
v -1.135265 0.079110 -1.055611
v -0.712493 0.079110 -0.880493
v -0.712493 -0.079110 -0.880493
v -1.135266 -0.079110 1.055611
v -1.135266 0.079110 1.055611
v -0.712494 0.079110 0.880493
v -0.712494 -0.079110 0.880493
v -0.470242 -0.079110 1.720634
v -0.470242 0.079110 1.720634
v -0.295124 0.079110 1.297862
v -0.295124 -0.079110 1.297862
v 0.470242 -0.079110 1.720634
v 0.470242 0.079110 1.720634
v 0.295124 0.079110 1.297862
v 0.295124 -0.079110 1.297862
v 1.063891 0.130036 -0.407729
v 1.039364 0.181199 -0.466540
v 1.044072 0.167689 -0.429705
v 1.135265 -0.079110 -0.422792
v 1.085410 -0.079110 -0.396467
v 1.120663 -0.079110 -0.394718
v 0.783778 0.130528 -0.514459
v 0.808395 0.181199 -0.544387
v 0.803818 0.167977 -0.514451
v 1.085027 0.079110 -0.391629
v 1.135265 0.079110 -0.418772
v 1.120551 0.079110 -0.390537
v 0.723854 -0.125000 -0.604530
v 0.784315 -0.130422 -0.536241
v 0.738750 -0.125000 -0.564523
v 1.060219 -0.133282 -0.431608
v 1.123905 -0.125000 -0.453954
v 1.108909 -0.125000 -0.424725
v 0.808395 -0.181199 -0.589162
v 0.804154 -0.167915 -0.553315
v 1.123905 0.125000 -0.435090
v 1.108804 0.125000 -0.406211
v 1.039364 -0.181199 -0.515933
v 1.041815 -0.169591 -0.473125
v 0.712494 0.079110 -0.602074
v 0.762071 0.079110 -0.531961
v 0.727014 0.079110 -0.561419
v 0.723854 0.125000 -0.585641
v 0.738772 0.125000 -0.545580
v 0.712494 -0.079110 -0.615801
v 0.761603 -0.079110 -0.544782
v 0.726877 -0.079110 -0.574900
v 1.082489 -0.079110 0.642290
v 1.135265 -0.079110 0.692664
v 1.119808 -0.079110 0.658349
v 1.061881 -0.130940 0.629215
v 1.039364 -0.181199 0.686531
v 1.043405 -0.168218 0.649935
v 0.783871 0.130160 0.664076
v 0.808395 0.181199 0.721778
v 0.803459 0.167762 0.685413
v 0.765061 0.079110 0.640831
v 0.712493 0.079110 0.683666
v 0.727890 0.079110 0.649675
v 1.135265 0.079110 0.746577
v 1.082778 0.079110 0.693015
v 1.119892 0.079110 0.711318
v 0.723854 0.125000 0.696545
v 0.739186 0.125000 0.664407
v 0.785346 -0.130350 0.614832
v 0.723854 -0.125000 0.656868
v 0.739484 -0.125000 0.624534
v 1.123905 -0.125000 0.680589
v 1.108293 -0.125000 0.646346
v 0.808395 -0.181199 0.657555
v 0.804025 -0.167873 0.626109
v 1.061774 0.132330 0.699831
v 1.039364 0.181199 0.763199
v 1.043030 0.169032 0.724709
v 1.123905 0.125000 0.758127
v 1.108605 0.125000 0.721886
v 0.765342 -0.079110 0.623360
v 0.712493 -0.079110 0.667286
v 0.727972 -0.079110 0.634919
vn 0.1613 0.1774 -0.9708
vn -0.0949 -0.1221 -0.9880
vn -0.1031 0.1524 -0.9829
vn 0.2503 0.1998 -0.9473
vn -0.9922 0.1247 -0.0000
vn -0.9630 0.1579 -0.2186
vn -0.9743 -0.0867 -0.2079
vn -0.9922 -0.1247 -0.0000
vn -0.6864 0.2403 -0.6864
vn -0.7016 0.1247 -0.7016
vn 0.2937 0.2704 -0.9168
vn -0.0513 0.2527 -0.9662
vn 0.0188 0.4273 -0.9039
vn 0.2781 0.4530 -0.8470
vn 0.4835 0.8521 0.2003
vn 0.5480 0.8305 -0.0998
vn 0.2839 0.9500 -0.1300
vn 0.0308 0.9817 -0.1880
vn -0.0000 1.0000 -0.0000
vn 0.6864 -0.2403 0.6864
vn 0.7022 -0.1171 0.7022
vn 0.6864 -0.2403 -0.6864
vn 0.7022 -0.1171 -0.7022
vn 0.4835 0.8521 -0.2003
vn 0.2003 0.8521 -0.4835
vn -0.4835 0.8521 0.2003
vn -0.2003 0.8521 0.4835
vn -0.0000 0.1171 -0.9931
vn -0.0000 0.2403 -0.9707
vn -0.6864 0.2403 0.6864
vn -0.7016 0.1247 0.7016
vn -0.4835 -0.8521 0.2003
vn -0.2003 -0.8521 0.4835
vn 0.4835 -0.8521 -0.2003
vn 0.2003 -0.8521 -0.4835
vn -0.7016 -0.1247 0.7016
vn -0.6864 -0.2403 0.6864
vn -0.0000 -0.2403 -0.9707
vn -0.0000 -0.1171 -0.9931
vn -0.2003 0.8521 -0.4835
vn 0.2003 0.8521 0.4835
vn -0.7022 0.1171 -0.7022
vn -0.0000 0.2403 0.9707
vn -0.0000 0.1247 0.9922
vn 0.2003 -0.8521 0.4835
vn -0.2003 -0.8521 -0.4835
vn -0.0000 -0.1247 0.9922
vn -0.0000 -0.2403 0.9707
vn -0.6864 -0.2403 -0.6864
vn -0.7022 -0.1171 -0.7022
vn -0.4835 0.8521 -0.2003
vn -0.0000 -1.0000 -0.0000
vn -0.9931 0.1171 -0.0000
vn -0.9707 0.2403 -0.0000
vn 0.6864 0.2403 0.6864
vn 0.7016 0.1247 0.7016
vn 0.4835 -0.8521 0.2003
vn -0.9823 -0.1104 0.1515
vn -0.9836 0.0898 0.1564
vn -0.4835 -0.8521 -0.2003
vn 0.7016 -0.1247 0.7016
vn -0.9707 -0.2403 -0.0000
vn -0.9931 -0.1171 -0.0000
vn -0.7022 0.1171 0.7022
vn 0.9707 0.2403 -0.0000
vn 0.9922 0.1247 -0.0000
vn 0.9922 -0.1247 -0.0000
vn 0.9707 -0.2403 -0.0000
vn -0.7022 -0.1171 0.7022
vn -0.0000 0.1171 0.9931
vn 0.6864 0.2403 -0.6864
vn 0.7016 0.1247 -0.7016
vn 0.7016 -0.1247 -0.7016
vn -0.0000 -0.1171 0.9931
vn -0.0000 0.1247 -0.9922
vn -0.0000 -0.1247 -0.9922
vn -0.9502 -0.1781 -0.2559
vn 0.7022 0.1171 -0.7022
vn -0.5487 -0.8281 -0.1151
vn -0.5486 -0.8280 -0.1163
vn -0.7016 -0.1247 -0.7016
vn 0.0225 -0.9787 -0.2040
vn 0.2785 -0.9491 -0.1469
vn -0.9414 0.2864 -0.1783
vn 0.7022 0.1171 0.7022
vn -0.1968 -0.2389 0.9509
vn -0.1899 0.0779 0.9787
vn -0.5283 -0.0524 0.8475
vn -0.5278 -0.0853 0.8451
vn 0.9359 0.2984 0.1871
vn 0.9547 0.1546 0.2541
vn 0.9931 0.1171 -0.0000
vn -0.9629 0.1662 0.2124
vn -0.0617 -0.9814 0.1821
vn -0.2974 -0.9466 0.1248
vn -0.1768 0.2795 0.9437
vn -0.4783 0.1378 0.8673
vn -0.1750 -0.5417 0.8221
vn -0.4388 -0.3845 0.8121
vn -0.0552 0.9855 0.1606
vn -0.0795 0.9696 0.2314
vn -0.9606 -0.1939 0.1992
vn 0.4778 -0.8679 0.1361
vn 0.5209 -0.8514 0.0619
vn 0.9436 -0.2033 0.2612
vn 0.9327 -0.3296 0.1463
vn 0.9931 -0.1171 -0.0000
vn -0.5764 0.8138 0.0739
vn -0.5925 0.7942 0.1350
vn -0.5613 -0.8230 0.0871
vn 0.5457 -0.8309 -0.1086
vn 0.9759 -0.0555 -0.2110
vn 0.9673 0.1679 -0.1903
vn 0.9535 -0.1721 -0.2474
vn 0.9464 0.2749 -0.1697
vn -0.5326 0.8419 -0.0873
vn -0.5221 0.8437 -0.1252
vn -0.3518 -0.7990 0.4877
vn -0.2204 -0.6365 0.7391
vn -0.1010 -0.9492 0.2981
vn -0.0183 -0.5903 0.8070
vn -0.0338 -0.5365 0.8432
vn 0.8674 -0.2119 0.4502
vn 0.7852 -0.4680 0.4056
vn -0.3896 0.2762 0.8786
vn -0.5995 0.0006 0.8004
vn -0.6132 0.7547 0.2332
vn -0.6278 -0.0642 0.7757
vn -0.9395 0.0534 0.3384
vn -0.9332 0.1154 0.3404
vn -0.6222 -0.0579 0.7807
vn -0.9370 -0.0960 0.3358
vn 0.4267 -0.8783 0.2158
vn -0.2684 0.3175 0.9095
vn -0.1267 0.9208 0.3689
vn -0.0274 0.1273 0.9915
vn -0.0028 0.3546 0.9350
vn 0.8274 0.3589 0.4320
vn 0.8742 0.1674 0.4557
vn -0.5897 -0.0530 0.8059
vn -0.9288 -0.1558 0.3361
vn -0.0401 -0.0285 0.9988
vn 0.4697 0.8471 0.2485
vn 0.5131 0.8478 0.1342
vn 0.5288 0.8443 0.0865
vn -0.5595 -0.7603 0.3300
vn 0.0398 -0.9319 -0.3605
vn 0.3177 -0.8987 -0.3024
vn 0.1396 -0.4461 -0.8840
vn 0.0016 -0.3937 -0.9192
vn 0.2427 -0.5171 -0.8208
vn 0.2821 0.8008 -0.5283
vn 0.0530 0.9446 -0.3240
vn 0.0826 0.5239 -0.8478
vn 0.9045 -0.1179 -0.4099
vn 0.9121 -0.0162 -0.4097
vn 0.3849 0.2156 -0.8974
vn 0.3585 0.1197 -0.9258
vn -0.4852 0.8412 -0.2386
vn -0.1137 0.4236 -0.8987
vn -0.8558 0.3309 -0.3977
vn -0.8927 0.1755 -0.4151
vn -0.2006 0.2433 -0.9490
vn -0.9025 -0.0518 -0.4277
vn -0.2524 0.1031 -0.9621
vn 0.5278 -0.8160 -0.2357
vn 0.3462 -0.5810 -0.7366
vn 0.8956 0.2113 -0.3914
vn 0.8748 0.3063 -0.3753
vn 0.5139 0.6187 -0.5942
vn 0.4187 0.2880 -0.8613
vn -0.8941 -0.1254 -0.4299
vn -0.2433 0.0068 -0.9699
vn -0.5314 -0.8056 -0.2621
vt 0.000000 0.576629
vt 0.155012 0.800176
vt 0.016784 0.569265
vt 0.062846 0.549277
vt 0.054954 0.716029
vt 0.497184 0.766988
vt 0.079782 0.542010
vt 0.497184 0.714761
vt 0.528495 0.172242
vt 0.104704 0.714659
vt 0.511991 0.165088
vt 0.465950 0.145122
vt 0.448750 0.137662
vt 0.105178 0.799208
vt 0.049840 0.862228
vt 0.000000 0.137547
vt 0.016784 0.144813
vt 0.062846 0.164798
vt 0.256683 0.787282
vt 0.079782 0.172162
vt 0.206825 0.787237
vt 0.528495 0.542062
vt 0.511991 0.549537
vt 0.465950 0.569542
vt 0.448750 0.576711
vt 0.000000 0.862783
vt 0.951725 0.926750
vt 0.131297 0.000005
vt 0.051466 0.716869
vt 0.138205 0.017618
vt 0.157284 0.065868
vt 0.256815 0.899033
vt 0.164344 0.083578
vt 0.306957 0.714659
vt 0.206957 0.898988
vt 0.613018 0.630601
vt 0.257288 0.715109
vt 0.606386 0.648417
vt 0.587316 0.696672
vt 0.001626 0.717424
vt 0.901976 0.928120
vt 0.579987 0.714182
vt 0.947044 0.732332
vt 0.316980 0.000000
vt 0.309920 0.017613
vt 0.290841 0.065864
vt 0.306957 0.839318
vt 0.283933 0.083574
vt 0.997872 0.000077
vt 0.257288 0.839768
vt 0.732553 0.630550
vt 0.948029 0.000000
vt 0.739881 0.648360
vt 0.758952 0.696599
vt 0.897294 0.733702
vt 0.765584 0.714103
vt 0.951725 0.597060
vt 0.897698 0.001687
vt 0.448277 0.137534
vt 0.431341 0.144801
vt 0.385279 0.164789
vt 0.368495 0.172153
vt 1.000000 0.083341
vt 0.817076 0.541940
vt 0.950158 0.083264
vt 0.834276 0.549401
vt 0.880317 0.569366
vt 0.901976 0.598430
vt 0.947556 0.001669
vt 0.896821 0.576520
vt 0.897294 0.418969
vt 0.448277 0.576616
vt 0.431341 0.569253
vt 0.385279 0.549268
vt 0.368495 0.542001
vt 1.000000 0.452561
vt 0.817076 0.172120
vt 0.950158 0.452485
vt 0.834276 0.164951
vt 0.880317 0.144947
vt 0.947152 0.418951
vt 0.896821 0.137472
vt 0.897698 0.592481
vt 0.206352 0.909343
vt 0.316979 0.714158
vt 0.309920 0.696449
vt 0.290841 0.648198
vt 0.997872 0.546160
vt 0.283933 0.630585
vt 0.054954 0.928367
vt 0.948029 0.546083
vt 0.732553 0.083581
vt 0.104704 0.926997
vt 0.739881 0.066071
vt 0.758952 0.017816
vt 0.947556 0.592464
vt 0.156683 0.909793
vt 0.765584 0.000000
vt 0.206352 0.715789
vt 0.131297 0.714163
vt 0.156209 0.929497
vt 0.138205 0.696454
vt 0.157284 0.648202
vt 0.051939 0.803152
vt 0.164344 0.630589
vt 0.613018 0.083632
vt 0.101689 0.801782
vt 0.606386 0.066128
vt 0.587316 0.017889
vt 0.106375 0.928529
vt 0.156683 0.716239
vt 0.579987 0.000079
vt 0.145789 0.801117
vt 0.114250 0.800504
vt 0.495587 0.724356
vt 0.095686 0.717299
vt 0.495587 0.757409
vt 0.064201 0.718166
vt 0.009082 0.861839
vt 0.040624 0.861488
vt 0.247541 0.787078
vt 0.215987 0.787050
vt 0.010725 0.715010
vt 0.910994 0.928813
vt 0.042267 0.714659
vt 0.942479 0.927946
vt 0.247671 0.897076
vt 0.297642 0.715486
vt 0.216117 0.897047
vt 0.266208 0.715771
vt 0.906265 0.732430
vt 0.937750 0.731563
vt 0.297642 0.838189
vt 0.988699 0.002489
vt 0.266208 0.838474
vt 0.957155 0.002441
vt 0.910994 0.595791
vt 0.938396 0.000000
vt 0.942479 0.594924
vt 0.906842 0.000011
vt 0.990794 0.084446
vt 0.959250 0.084398
vt 0.937990 0.419150
vt 0.906436 0.419162
vt 0.990794 0.451704
vt 0.959250 0.451656
vt 0.938398 0.594416
vt 0.165603 0.910454
vt 0.906844 0.594428
vt 0.197037 0.910170
vt 0.988699 0.543834
vt 0.064201 0.927171
vt 0.957155 0.543786
vt 0.095686 0.926304
vt 0.165603 0.714944
vt 0.115460 0.931133
vt 0.197037 0.714659
vt 0.146999 0.931745
vt 0.061233 0.803921
vt 0.092719 0.803054
vt 0.365986 0.727702
vt 0.016784 0.259576
vt 0.373712 0.732460
vt 0.015863 0.267283
vt 0.010606 0.993805
vt 0.324387 0.722021
vt 0.324574 0.714659
vt 0.010745 0.999481
vt 0.366150 0.788165
vt 0.062846 0.243312
vt 0.373712 0.784175
vt 0.063776 0.249577
vt 0.355731 0.722733
vt 0.042158 0.994292
vt 0.355931 0.715329
vt 0.042298 1.000000
vt 0.206943 0.731515
vt 0.528495 0.483433
vt 0.314685 0.787302
vt 0.497657 0.723264
vt 0.315955 0.797393
vt 0.206949 0.722603
vt 0.498700 0.714678
vt 0.525526 0.475077
vt 0.314060 0.727747
vt 0.461497 0.447362
vt 0.001438 0.987269
vt 0.448750 0.452013
vt 0.315889 0.717523
vt 0.001581 0.993181
vt 0.451739 0.445906
vt 0.511991 0.480383
vt 0.307645 0.783367
vt 0.505418 0.723264
vt 0.512754 0.472858
vt 0.051323 0.990648
vt 0.000000 0.266195
vt 0.051466 0.996486
vt 0.365237 0.718315
vt 0.003012 0.272228
vt 0.465950 0.465106
vt 0.307430 0.732281
vt 0.465390 0.456132
vt 0.247658 0.731802
vt 0.356096 0.792807
vt 0.247651 0.714659
vt 0.356374 0.800714
vt 0.247665 0.722787
vt 0.079782 0.234741
vt 0.256809 0.727810
vt 0.076806 0.243110
vt 0.365297 0.798149
vt 0.256815 0.718886
vt 0.216098 0.734499
vt 0.216092 0.717207
vt 0.324880 0.792440
vt 0.325172 0.800293
vt 0.216105 0.725444
vt 0.424610 0.722845
vt 0.115483 0.724822
vt 0.115680 0.717479
vt 0.424451 0.714990
vt 0.435066 0.727235
vt 0.465950 0.213922
vt 0.465064 0.221532
vt 0.442221 0.731045
vt 0.382417 0.784984
vt 0.062846 0.507822
vt 0.063848 0.500237
vt 0.374693 0.780786
vt 0.392842 0.789037
vt 0.458282 0.757356
vt 0.452796 0.757334
vt 0.392702 0.796768
vt 0.146839 0.736676
vt 0.392503 0.722480
vt 0.147039 0.729138
vt 0.392317 0.714659
vt 0.079782 0.502599
vt 0.461428 0.766937
vt 0.076724 0.495885
vt 0.456289 0.766916
vt 0.383400 0.794320
vt 0.434870 0.785050
vt 0.453908 0.714700
vt 0.528495 0.219939
vt 0.448750 0.714678
vt 0.525379 0.226694
vt 0.433647 0.794589
vt 0.106436 0.721989
vt 0.448750 0.215017
vt 0.106634 0.714659
vt 0.451862 0.222169
vt 0.433720 0.717473
vt 0.511991 0.219955
vt 0.512780 0.226487
vt 0.442221 0.781134
vt 0.381808 0.726803
vt 0.016784 0.516477
vt 0.016069 0.508446
vt 0.374185 0.730598
vt 0.156006 0.739125
vt 0.000000 0.515466
vt 0.156209 0.731383
vt 0.003051 0.507895
vt 0.383044 0.716944
vt 0.424549 0.789159
vt 0.455178 0.724298
vt 0.450004 0.724277
vt 0.424376 0.796921
s 1
g Kette_Broken_01_eckig_Metall_Schrauben.001
usemtl Metall_Schrauben.001
f 132/223/1 146/244/2 158/267/3 129/219/4
f 68/117/5 139/232/6 159/268/7 67/115/8
f 60/104/9 4/5/9 68/118/10 95/159/10
f 142/236/11 138/231/12 135/227/13 153/258/14
f 1/1/15 156/263/16 154/259/17 2/3/15
f 154/259/17 136/228/18 3/4/19 2/3/19
f 64/110/20 8/14/20 66/114/21 93/156/21
f 16/26/22 24/40/22 73/123/23 69/119/23
f 9/16/24 17/28/25 18/30/25 10/17/24
f 11/18/26 19/31/27 20/33/27 12/20/26
f 74/126/28 78/132/28 25/43/29 17/27/29
f 12/19/30 20/32/30 75/127/31 71/121/31
f 13/22/32 21/36/33 22/38/33 14/23/32
f 15/24/34 23/39/35 24/42/35 16/25/34
f 72/122/36 76/129/36 21/35/37 13/21/37
f 24/41/38 32/55/38 77/131/39 73/124/39
f 17/28/25 25/44/40 26/45/40 18/30/25
f 19/31/27 27/46/41 28/48/41 20/33/27
f 78/132/42 82/139/42 33/57/9 25/43/9
f 20/34/43 28/47/43 79/133/44 75/128/44
f 21/36/33 29/51/45 30/53/45 22/38/33
f 23/39/35 31/54/46 32/56/46 24/42/35
f 76/130/47 80/135/47 29/50/48 21/37/48
f 32/55/49 40/68/49 81/137/50 77/131/50
f 25/44/40 33/59/51 34/60/51 26/45/40
f 39/67/52 31/54/52 30/53/52 38/66/52
f 30/53/52 31/54/52 23/39/52 22/38/52
f 27/46/41 35/61/15 36/62/15 28/48/41
f 82/140/53 86/144/53 41/71/54 33/58/54
f 28/49/55 36/63/55 83/141/56 79/134/56
f 29/51/45 37/64/57 38/66/57 30/53/45
f 22/38/52 23/39/52 15/24/52 14/23/52
f 126/214/58 121/204/59 71/121/5 72/122/8
f 31/54/46 39/67/60 40/70/60 32/56/46
f 80/136/61 84/142/61 37/65/20 29/52/20
f 40/69/62 48/81/62 85/143/63 81/138/63
f 33/59/51 41/72/26 42/73/26 34/60/51
f 7/12/52 63/109/52 62/108/52 6/11/52
f 62/108/52 63/109/52 55/95/52 54/94/52
f 35/61/15 43/74/24 44/75/24 36/62/15
f 86/144/64 90/149/64 49/83/30 41/71/30
f 36/63/65 44/76/65 87/145/66 83/141/66
f 37/64/57 45/77/34 46/79/34 38/66/57
f 54/94/52 55/95/52 47/80/52 46/79/52
f 46/79/52 47/80/52 39/67/52 38/66/52
f 39/67/60 47/80/32 48/82/32 40/70/60
f 84/142/67 88/146/67 45/78/68 37/65/68
f 48/81/37 56/96/37 89/147/69 85/143/69
f 41/72/26 49/85/27 50/86/27 42/73/26
f 50/86/19 51/87/19 43/74/19 42/73/19
f 59/103/19 51/87/19 50/86/19 58/102/19
f 43/74/24 51/87/25 52/89/25 44/75/24
f 90/150/70 94/157/70 57/99/43 49/84/43
f 44/76/71 52/88/71 91/151/72 87/145/72
f 45/77/34 53/92/35 54/94/35 46/79/34
f 59/103/19 58/102/19 2/3/19 3/4/19
f 47/80/32 55/95/33 56/98/33 48/82/32
f 88/146/73 92/153/73 53/91/22 45/78/22
f 56/97/48 64/111/48 93/155/74 89/148/74
f 49/85/27 57/100/41 58/102/41 50/86/27
f 26/45/19 27/46/19 19/31/19 18/30/19
f 18/30/19 19/31/19 11/18/19 10/17/19
f 51/87/25 59/103/40 60/105/40 52/89/25
f 52/90/29 60/104/29 95/159/75 91/152/75
f 53/92/35 61/106/46 62/108/46 54/94/35
f 34/60/19 35/61/19 27/46/19 26/45/19
f 42/73/19 43/74/19 35/61/19 34/60/19
f 55/95/33 63/109/45 64/112/45 56/98/33
f 92/154/76 96/160/76 61/107/38 53/93/38
f 67/115/8 159/268/7 147/245/77 5/8/62
f 57/100/41 1/1/15 2/3/15 58/102/41
f 59/103/40 3/4/51 4/7/51 60/105/40
f 70/120/78 74/125/78 17/29/71 9/15/71
f 5/9/60 147/246/79 151/255/80 6/11/60
f 61/106/46 5/9/60 6/11/60 62/108/46
f 63/109/45 7/12/57 8/13/57 64/112/45
f 96/160/81 67/116/81 5/10/49 61/107/49
f 151/255/82 133/224/83 7/12/52 6/11/52
f 4/6/54 144/240/84 139/232/6 68/117/5
f 69/119/23 73/123/23 74/125/78 70/120/78
f 71/121/31 75/127/31 76/129/36 72/122/36
f 73/124/39 77/131/39 78/132/28 74/126/28
f 75/128/44 79/133/44 80/135/47 76/130/47
f 77/131/50 81/137/50 82/139/42 78/132/42
f 79/134/56 83/141/56 84/142/61 80/136/61
f 81/138/63 85/143/63 86/144/53 82/140/53
f 83/141/66 87/145/66 88/146/67 84/142/67
f 85/143/69 89/147/69 90/149/64 86/144/64
f 87/145/72 91/151/72 92/153/73 88/146/73
f 89/148/74 93/155/74 94/157/70 90/150/70
f 91/152/75 95/159/75 96/160/76 92/154/76
f 65/113/85 94/158/85 93/156/21 66/114/21
f 67/116/81 96/160/81 95/159/10 68/118/10
f 94/158/85 65/113/85 1/2/55 57/101/55
f 101/166/86 106/173/87 122/205/88 127/216/89
f 117/196/90 107/174/91 70/120/92 9/15/65
f 129/219/4 158/267/3 138/231/12 142/236/11
f 121/204/59 124/210/93 12/19/54 71/121/5
f 14/23/52 15/24/52 119/201/94 115/192/95
f 106/173/87 97/161/96 103/169/97 122/205/88
f 112/185/98 101/166/86 127/216/89 110/179/99
f 10/17/19 11/18/19 104/170/100 98/162/101
f 109/177/102 126/214/58 72/122/8 13/21/62
f 113/188/103 119/201/104 15/24/34 16/25/34
f 100/165/105 113/187/106 16/26/68 69/119/107
f 124/209/108 104/170/109 11/18/26 12/20/26
f 115/192/95 109/178/110 13/22/32 14/23/32
f 107/174/91 100/165/105 69/119/107 70/120/92
f 7/12/57 133/224/83 149/251/111 8/13/57
f 66/114/107 130/220/112 141/235/113 65/113/92
f 8/14/68 149/250/114 130/220/112 66/114/107
f 65/113/92 141/235/113 156/262/115 1/2/65
f 3/4/51 136/228/116 144/239/117 4/7/51
f 112/185/98 110/179/99 116/193/118 120/202/119
f 120/203/120 116/195/118 115/192/95 119/201/94
f 101/166/86 112/185/98 114/189/121 102/167/122
f 102/168/123 114/190/124 113/187/106 100/165/105
f 103/169/97 105/171/125 125/212/126
f 125/211/127 105/172/127 104/170/109 124/209/108
f 122/205/88 103/169/97 125/212/126 123/207/128
f 123/208/129 125/213/130 124/210/93 121/204/59
f 127/215/89 122/206/88 123/208/128 128/218/131
f 128/218/132 123/208/129 121/204/59 126/214/58
f 112/186/98 120/203/119 114/191/121
f 114/191/133 120/203/133 119/201/104 113/188/103
f 103/169/97 97/161/96 99/163/134 105/171/125
f 105/172/135 99/164/135 98/162/101 104/170/100
f 97/161/96 106/173/87 108/175/136 118/199/137
f 118/198/138 108/176/139 107/174/91 117/196/90
f 110/179/99 127/216/89 128/217/131 111/181/140
f 111/182/141 128/218/132 126/214/58 109/177/102
f 106/173/87 101/166/86 102/167/142 108/175/136
f 108/176/139 102/168/123 100/165/105 107/174/91
f 97/161/96 118/199/137 99/163/134
f 99/164/143 118/200/143 117/197/144 98/162/145
f 110/180/99 111/183/146 116/194/118
f 116/195/118 111/184/146 109/178/110 115/192/95
f 133/224/83 151/255/82 152/256/147 134/225/148
f 134/226/149 152/257/150 146/244/2 132/223/151
f 136/228/18 154/259/17 155/260/152 137/229/153
f 137/230/154 155/261/152 153/258/14 135/227/13
f 130/220/112 149/250/114 150/252/155 131/221/156
f 131/222/157 150/254/158 132/223/1 129/219/4
f 144/239/117 136/228/116 137/229/159 145/241/159
f 145/243/160 137/230/154 135/227/13
f 139/232/6 144/240/84 145/242/161 140/233/162
f 140/234/163 145/243/160 135/227/13 138/231/12
f 159/268/7 139/232/6 140/233/162 160/269/164
f 160/270/165 140/234/163 138/231/12 158/267/3
f 149/251/111 133/224/83 134/225/148 150/253/166
f 150/254/167 134/226/149 132/223/151
f 156/262/115 141/235/113 143/237/168 157/264/169
f 157/266/170 143/238/171 142/236/11 153/258/14
f 147/245/77 159/268/7 160/269/164 148/247/172
f 148/249/173 160/270/165 158/267/3 146/244/2
f 151/255/80 147/246/79 148/248/174 152/256/174
f 152/257/150 148/249/173 146/244/2
f 154/259/17 156/263/16 157/265/170 155/260/152
f 155/261/152 157/266/170 153/258/14
f 141/235/113 130/220/112 131/221/156 143/237/168
f 143/238/171 131/222/157 129/219/4 142/236/11
f 98/162/145 117/197/144 9/16/24 10/17/24
